M48
;DRILL file {KiCad 4.0.7} date 06/19/18 18:29:09
;FORMAT={-:-/ absolute / metric / decimal}
FMAT,2
METRIC,TZ
T1C0.600
T2C2.500
%
G90
G05
M71
T1
X132.1Y-40.05
X132.1Y-43.45
X132.1Y-88.05
X132.1Y-91.45
X133.Y-40.05
X133.Y-43.45
X133.Y-88.05
X133.Y-91.45
X138.95Y-38.66
X138.95Y-44.84
X138.95Y-86.66
X138.95Y-92.84
X140.3Y-64.15
X140.3Y-67.35
X140.65Y-38.66
X140.65Y-44.84
X140.65Y-86.66
X140.65Y-92.84
X141.2Y-64.15
X141.2Y-67.35
X146.6Y-40.05
X146.6Y-43.45
X146.6Y-88.05
X146.6Y-91.45
X147.5Y-40.05
X147.5Y-43.45
X147.5Y-88.05
X147.5Y-91.45
X151.3Y-27.95
X151.3Y-28.95
X151.3Y-54.55
X151.3Y-55.55
X151.3Y-75.95
X151.3Y-76.95
X151.3Y-102.55
X151.3Y-103.55
X153.3Y-27.95
X153.3Y-28.95
X153.3Y-54.55
X153.3Y-55.55
X153.3Y-75.95
X153.3Y-76.95
X153.3Y-102.55
X153.3Y-103.55
X157.1Y-40.05
X157.1Y-43.45
X157.1Y-88.05
X157.1Y-91.45
X158.Y-40.05
X158.Y-43.45
X158.Y-88.05
X158.Y-91.45
X163.95Y-38.66
X163.95Y-44.84
X163.95Y-86.66
X163.95Y-92.84
X165.3Y-64.15
X165.3Y-67.35
X165.65Y-38.66
X165.65Y-44.84
X165.65Y-86.66
X165.65Y-92.84
X166.2Y-64.15
X166.2Y-67.35
X171.6Y-40.05
X171.6Y-43.45
X171.6Y-88.05
X171.6Y-91.45
X172.5Y-40.05
X172.5Y-43.45
X172.5Y-88.05
X172.5Y-91.45
X176.3Y-27.95
X176.3Y-28.95
X176.3Y-54.55
X176.3Y-55.55
X176.3Y-75.95
X176.3Y-76.95
X176.3Y-102.55
X176.3Y-103.55
X178.3Y-27.95
X178.3Y-28.95
X178.3Y-54.55
X178.3Y-55.55
X178.3Y-75.95
X178.3Y-76.95
X178.3Y-102.55
X178.3Y-103.55
X182.1Y-40.05
X182.1Y-43.45
X182.1Y-88.05
X182.1Y-91.45
X183.Y-40.05
X183.Y-43.45
X183.Y-88.05
X183.Y-91.45
X188.95Y-38.66
X188.95Y-44.84
X188.95Y-86.66
X188.95Y-92.84
X190.3Y-64.15
X190.3Y-67.35
X190.65Y-38.66
X190.65Y-44.84
X190.65Y-86.66
X190.65Y-92.84
X191.2Y-64.15
X191.2Y-67.35
X196.6Y-40.05
X196.6Y-43.45
X196.6Y-88.05
X196.6Y-91.45
X197.5Y-40.05
X197.5Y-43.45
X197.5Y-88.05
X197.5Y-91.45
X201.3Y-27.95
X201.3Y-28.95
X201.3Y-54.55
X201.3Y-55.55
X201.3Y-75.95
X201.3Y-76.95
X201.3Y-102.55
X201.3Y-103.55
X203.3Y-27.95
X203.3Y-28.95
X203.3Y-54.55
X203.3Y-55.55
X203.3Y-75.95
X203.3Y-76.95
X203.3Y-102.55
X203.3Y-103.55
X207.1Y-40.05
X207.1Y-43.45
X207.1Y-88.05
X207.1Y-91.45
X208.Y-40.05
X208.Y-43.45
X208.Y-88.05
X208.Y-91.45
X213.95Y-38.66
X213.95Y-44.84
X213.95Y-86.66
X213.95Y-92.84
X215.3Y-64.15
X215.3Y-67.35
X215.65Y-38.66
X215.65Y-44.84
X215.65Y-86.66
X215.65Y-92.84
X216.2Y-64.15
X216.2Y-67.35
X221.6Y-40.05
X221.6Y-43.45
X221.6Y-88.05
X221.6Y-91.45
X222.5Y-40.05
X222.5Y-43.45
X222.5Y-88.05
X222.5Y-91.45
T2
X132.Y-25.45
X132.Y-58.05
X132.Y-73.45
X132.Y-106.05
X147.6Y-25.45
X147.6Y-58.05
X147.6Y-73.45
X147.6Y-106.05
X157.Y-25.45
X157.Y-58.05
X157.Y-73.45
X157.Y-106.05
X172.6Y-25.45
X172.6Y-58.05
X172.6Y-73.45
X172.6Y-106.05
X182.Y-25.45
X182.Y-58.05
X182.Y-73.45
X182.Y-106.05
X197.6Y-25.45
X197.6Y-58.05
X197.6Y-73.45
X197.6Y-106.05
X207.Y-25.45
X207.Y-58.05
X207.Y-73.45
X207.Y-106.05
X222.6Y-25.45
X222.6Y-58.05
X222.6Y-73.45
X222.6Y-106.05
T0
M30
