%TF.GenerationSoftware,KiCad,Pcbnew,4.0.7*%
%TF.CreationDate,2018-06-19T18:29:04+03:00*%
%TF.ProjectId,TinyDiversityRX5808_panelized,54696E79446976657273697479525835,rev?*%
%TF.FileFunction,Soldermask,Top*%
%FSLAX46Y46*%
G04 Gerber Fmt 4.6, Leading zero omitted, Abs format (unit mm)*
G04 Created by KiCad (PCBNEW 4.0.7) date 06/19/18 18:29:04*
%MOMM*%
%LPD*%
G01*
G04 APERTURE LIST*
%ADD10C,0.100000*%
%ADD11C,0.150000*%
%ADD12C,0.720000*%
%ADD13R,0.770000X1.820000*%
%ADD14O,1.920000X1.120000*%
%ADD15R,0.770000X1.180000*%
%ADD16R,1.020000X0.620000*%
%ADD17R,0.620000X1.020000*%
%ADD18R,0.920000X0.870000*%
%ADD19R,0.970000X0.970000*%
%ADD20C,0.970000*%
%ADD21R,1.320000X1.320000*%
%ADD22C,2.620000*%
%ADD23C,1.320000*%
%ADD24R,1.270000X1.420000*%
%ADD25R,1.020000X1.320000*%
%ADD26R,0.720000X1.120000*%
%ADD27O,0.920000X2.120000*%
G04 APERTURE END LIST*
D10*
D11*
X214900000Y-63750000D02*
X214900000Y-67750000D01*
X216600000Y-67750000D02*
X221800000Y-67750000D01*
X216600000Y-63750000D02*
X216600000Y-67750000D01*
X221800000Y-63750000D02*
X216600000Y-63750000D01*
X191600000Y-63750000D02*
X191600000Y-67750000D01*
X196800000Y-63750000D02*
X191600000Y-63750000D01*
X189900000Y-63750000D02*
X189900000Y-67750000D01*
X191600000Y-67750000D02*
X196800000Y-67750000D01*
X166600000Y-67750000D02*
X171800000Y-67750000D01*
X171800000Y-63750000D02*
X166600000Y-63750000D01*
X164900000Y-63750000D02*
X164900000Y-67750000D01*
X166600000Y-63750000D02*
X166600000Y-67750000D01*
X141600000Y-67750000D02*
X146800000Y-67750000D01*
X141600000Y-63750000D02*
X146800000Y-63750000D01*
X141600000Y-63750000D02*
X141600000Y-67750000D01*
X139900000Y-63750000D02*
X139900000Y-67750000D01*
X134300000Y-63050000D02*
X137300000Y-63050000D01*
X150800000Y-52550000D02*
X149300000Y-52550000D01*
X149300000Y-52550000D02*
X149300000Y-49550000D01*
X149300000Y-49550000D02*
X150800000Y-49550000D01*
X150800000Y-49550000D02*
X150800000Y-44050000D01*
X139900000Y-63750000D02*
X139900000Y-63050000D01*
X139900000Y-63050000D02*
X137300000Y-63050000D01*
X146800000Y-63750000D02*
G75*
G03X150800000Y-59750000I0J4000000D01*
G01*
X128800000Y-59750000D02*
G75*
G03X132800000Y-63750000I4000000J0D01*
G01*
X128800000Y-59750000D02*
X128800000Y-44050000D01*
X132800000Y-63750000D02*
X132800000Y-63050000D01*
X132800000Y-63050000D02*
X134300000Y-63050000D01*
X131400000Y-43450000D02*
G75*
G03X130800000Y-44050000I0J-600000D01*
G01*
X134300000Y-44050000D02*
G75*
G03X133700000Y-43450000I-600000J0D01*
G01*
X145900000Y-43450000D02*
G75*
G03X145300000Y-44050000I0J-600000D01*
G01*
X148800000Y-44050000D02*
G75*
G03X148200000Y-43450000I-600000J0D01*
G01*
X130800000Y-44050000D02*
X128800000Y-44050000D01*
X148800000Y-44050000D02*
X150800000Y-44050000D01*
X173800000Y-44050000D02*
X175800000Y-44050000D01*
X155800000Y-44050000D02*
X153800000Y-44050000D01*
X173800000Y-44050000D02*
G75*
G03X173200000Y-43450000I-600000J0D01*
G01*
X170900000Y-43450000D02*
G75*
G03X170300000Y-44050000I0J-600000D01*
G01*
X159300000Y-44050000D02*
G75*
G03X158700000Y-43450000I-600000J0D01*
G01*
X156400000Y-43450000D02*
G75*
G03X155800000Y-44050000I0J-600000D01*
G01*
X157800000Y-63050000D02*
X159300000Y-63050000D01*
X157800000Y-63750000D02*
X157800000Y-63050000D01*
X153800000Y-59750000D02*
G75*
G03X157800000Y-63750000I4000000J0D01*
G01*
X171800000Y-63750000D02*
G75*
G03X175800000Y-59750000I0J4000000D01*
G01*
X164900000Y-63050000D02*
X162300000Y-63050000D01*
X164900000Y-63750000D02*
X164900000Y-63050000D01*
X175800000Y-49550000D02*
X175800000Y-44050000D01*
X174300000Y-49550000D02*
X175800000Y-49550000D01*
X174300000Y-52550000D02*
X174300000Y-49550000D01*
X175800000Y-52550000D02*
X174300000Y-52550000D01*
X159300000Y-63050000D02*
X162300000Y-63050000D01*
X184300000Y-63050000D02*
X187300000Y-63050000D01*
X200800000Y-52550000D02*
X199300000Y-52550000D01*
X199300000Y-52550000D02*
X199300000Y-49550000D01*
X199300000Y-49550000D02*
X200800000Y-49550000D01*
X200800000Y-49550000D02*
X200800000Y-44050000D01*
X189900000Y-63750000D02*
X189900000Y-63050000D01*
X189900000Y-63050000D02*
X187300000Y-63050000D01*
X196800000Y-63750000D02*
G75*
G03X200800000Y-59750000I0J4000000D01*
G01*
X178800000Y-59750000D02*
G75*
G03X182800000Y-63750000I4000000J0D01*
G01*
X182800000Y-63750000D02*
X182800000Y-63050000D01*
X182800000Y-63050000D02*
X184300000Y-63050000D01*
X181400000Y-43450000D02*
G75*
G03X180800000Y-44050000I0J-600000D01*
G01*
X184300000Y-44050000D02*
G75*
G03X183700000Y-43450000I-600000J0D01*
G01*
X195900000Y-43450000D02*
G75*
G03X195300000Y-44050000I0J-600000D01*
G01*
X198800000Y-44050000D02*
G75*
G03X198200000Y-43450000I-600000J0D01*
G01*
X180800000Y-44050000D02*
X178800000Y-44050000D01*
X184300000Y-44050000D02*
X195300000Y-44050000D01*
X198800000Y-44050000D02*
X200800000Y-44050000D01*
X223800000Y-44050000D02*
X225800000Y-44050000D01*
X209300000Y-44050000D02*
X220300000Y-44050000D01*
X205800000Y-44050000D02*
X203800000Y-44050000D01*
X223800000Y-44050000D02*
G75*
G03X223200000Y-43450000I-600000J0D01*
G01*
X220900000Y-43450000D02*
G75*
G03X220300000Y-44050000I0J-600000D01*
G01*
X209300000Y-44050000D02*
G75*
G03X208700000Y-43450000I-600000J0D01*
G01*
X206400000Y-43450000D02*
G75*
G03X205800000Y-44050000I0J-600000D01*
G01*
X207800000Y-63050000D02*
X209300000Y-63050000D01*
X207800000Y-63750000D02*
X207800000Y-63050000D01*
X203800000Y-59750000D02*
G75*
G03X207800000Y-63750000I4000000J0D01*
G01*
X225800000Y-59750000D02*
X225800000Y-52550000D01*
X221800000Y-63750000D02*
G75*
G03X225800000Y-59750000I0J4000000D01*
G01*
X214900000Y-63050000D02*
X212300000Y-63050000D01*
X214900000Y-63750000D02*
X214900000Y-63050000D01*
X225800000Y-49550000D02*
X225800000Y-44050000D01*
X224300000Y-49550000D02*
X225800000Y-49550000D01*
X224300000Y-52550000D02*
X224300000Y-49550000D01*
X225800000Y-52550000D02*
X224300000Y-52550000D01*
X209300000Y-63050000D02*
X212300000Y-63050000D01*
X150800000Y-54050000D02*
X153800000Y-54050000D01*
X150800000Y-56050000D02*
X153800000Y-56050000D01*
X150800000Y-52550000D02*
X150800000Y-54050000D01*
X150800000Y-56050000D02*
X150800000Y-59750000D01*
X153800000Y-54050000D02*
X153800000Y-44050000D01*
X153800000Y-59750000D02*
X153800000Y-56050000D01*
X175800000Y-54050000D02*
X178800000Y-54050000D01*
X175800000Y-56050000D02*
X178800000Y-56050000D01*
X175800000Y-52550000D02*
X175800000Y-54050000D01*
X175800000Y-56050000D02*
X175800000Y-59750000D01*
X178800000Y-59750000D02*
X178800000Y-56050000D01*
X178800000Y-54050000D02*
X178800000Y-44050000D01*
X200800000Y-54050000D02*
X203800000Y-54050000D01*
X200800000Y-56050000D02*
X203800000Y-56050000D01*
X203800000Y-44050000D02*
X203800000Y-54050000D01*
X200800000Y-52550000D02*
X200800000Y-54050000D01*
X200800000Y-56050000D02*
X200800000Y-59750000D01*
X203800000Y-56050000D02*
X203800000Y-59750000D01*
X203800000Y-27450000D02*
X203800000Y-23750000D01*
X200800000Y-27450000D02*
X200800000Y-23750000D01*
X200800000Y-30950000D02*
X200800000Y-29450000D01*
X203800000Y-39450000D02*
X203800000Y-29450000D01*
X200800000Y-27450000D02*
X203800000Y-27450000D01*
X200800000Y-29450000D02*
X203800000Y-29450000D01*
X178800000Y-29450000D02*
X178800000Y-39450000D01*
X178800000Y-23750000D02*
X178800000Y-27450000D01*
X175800000Y-27450000D02*
X175800000Y-23750000D01*
X175800000Y-30950000D02*
X175800000Y-29450000D01*
X175800000Y-27450000D02*
X178800000Y-27450000D01*
X175800000Y-29450000D02*
X178800000Y-29450000D01*
X153800000Y-23750000D02*
X153800000Y-27450000D01*
X153800000Y-29450000D02*
X153800000Y-39450000D01*
X150800000Y-27450000D02*
X150800000Y-23750000D01*
X150800000Y-30950000D02*
X150800000Y-29450000D01*
X150800000Y-27450000D02*
X153800000Y-27450000D01*
X150800000Y-29450000D02*
X153800000Y-29450000D01*
X209300000Y-20450000D02*
X212300000Y-20450000D01*
X225800000Y-30950000D02*
X224300000Y-30950000D01*
X224300000Y-30950000D02*
X224300000Y-33950000D01*
X224300000Y-33950000D02*
X225800000Y-33950000D01*
X225800000Y-33950000D02*
X225800000Y-39450000D01*
X214900000Y-19750000D02*
X214900000Y-20450000D01*
X214900000Y-20450000D02*
X212300000Y-20450000D01*
X221800000Y-19750000D02*
G75*
G02X225800000Y-23750000I0J-4000000D01*
G01*
X225800000Y-23750000D02*
X225800000Y-30950000D01*
X221800000Y-19750000D02*
X214900000Y-19750000D01*
X203800000Y-23750000D02*
G75*
G02X207800000Y-19750000I4000000J0D01*
G01*
X207800000Y-19750000D02*
X207800000Y-20450000D01*
X207800000Y-20450000D02*
X209300000Y-20450000D01*
X206400000Y-40050000D02*
G75*
G02X205800000Y-39450000I0J600000D01*
G01*
X209300000Y-39450000D02*
G75*
G02X208700000Y-40050000I-600000J0D01*
G01*
X220900000Y-40050000D02*
G75*
G02X220300000Y-39450000I0J600000D01*
G01*
X223800000Y-39450000D02*
G75*
G02X223200000Y-40050000I-600000J0D01*
G01*
X205800000Y-39450000D02*
X203800000Y-39450000D01*
X209300000Y-39450000D02*
X220300000Y-39450000D01*
X223800000Y-39450000D02*
X225800000Y-39450000D01*
X198800000Y-39450000D02*
X200800000Y-39450000D01*
X184300000Y-39450000D02*
X195300000Y-39450000D01*
X180800000Y-39450000D02*
X178800000Y-39450000D01*
X198800000Y-39450000D02*
G75*
G02X198200000Y-40050000I-600000J0D01*
G01*
X195900000Y-40050000D02*
G75*
G02X195300000Y-39450000I0J600000D01*
G01*
X184300000Y-39450000D02*
G75*
G02X183700000Y-40050000I-600000J0D01*
G01*
X181400000Y-40050000D02*
G75*
G02X180800000Y-39450000I0J600000D01*
G01*
X182800000Y-20450000D02*
X184300000Y-20450000D01*
X182800000Y-19750000D02*
X182800000Y-20450000D01*
X178800000Y-23750000D02*
G75*
G02X182800000Y-19750000I4000000J0D01*
G01*
X196800000Y-19750000D02*
X189900000Y-19750000D01*
X196800000Y-19750000D02*
G75*
G02X200800000Y-23750000I0J-4000000D01*
G01*
X189900000Y-20450000D02*
X187300000Y-20450000D01*
X189900000Y-19750000D02*
X189900000Y-20450000D01*
X200800000Y-33950000D02*
X200800000Y-39450000D01*
X199300000Y-33950000D02*
X200800000Y-33950000D01*
X199300000Y-30950000D02*
X199300000Y-33950000D01*
X200800000Y-30950000D02*
X199300000Y-30950000D01*
X184300000Y-20450000D02*
X187300000Y-20450000D01*
X159300000Y-20450000D02*
X162300000Y-20450000D01*
X175800000Y-30950000D02*
X174300000Y-30950000D01*
X174300000Y-30950000D02*
X174300000Y-33950000D01*
X174300000Y-33950000D02*
X175800000Y-33950000D01*
X175800000Y-33950000D02*
X175800000Y-39450000D01*
X164900000Y-19750000D02*
X164900000Y-20450000D01*
X164900000Y-20450000D02*
X162300000Y-20450000D01*
X171800000Y-19750000D02*
G75*
G02X175800000Y-23750000I0J-4000000D01*
G01*
X153800000Y-23750000D02*
G75*
G02X157800000Y-19750000I4000000J0D01*
G01*
X157800000Y-19750000D02*
X157800000Y-20450000D01*
X157800000Y-20450000D02*
X159300000Y-20450000D01*
X156400000Y-40050000D02*
G75*
G02X155800000Y-39450000I0J600000D01*
G01*
X159300000Y-39450000D02*
G75*
G02X158700000Y-40050000I-600000J0D01*
G01*
X170900000Y-40050000D02*
G75*
G02X170300000Y-39450000I0J600000D01*
G01*
X173800000Y-39450000D02*
G75*
G02X173200000Y-40050000I-600000J0D01*
G01*
X155800000Y-39450000D02*
X153800000Y-39450000D01*
X159300000Y-39450000D02*
X170300000Y-39450000D01*
X173800000Y-39450000D02*
X175800000Y-39450000D01*
X148800000Y-39450000D02*
X150800000Y-39450000D01*
X134300000Y-39450000D02*
X145300000Y-39450000D01*
X130800000Y-39450000D02*
X128800000Y-39450000D01*
X148800000Y-39450000D02*
G75*
G02X148200000Y-40050000I-600000J0D01*
G01*
X145900000Y-40050000D02*
G75*
G02X145300000Y-39450000I0J600000D01*
G01*
X134300000Y-39450000D02*
G75*
G02X133700000Y-40050000I-600000J0D01*
G01*
X131400000Y-40050000D02*
G75*
G02X130800000Y-39450000I0J600000D01*
G01*
X132800000Y-20450000D02*
X134300000Y-20450000D01*
X132800000Y-19750000D02*
X132800000Y-20450000D01*
X128800000Y-23750000D02*
X128800000Y-39450000D01*
X128800000Y-23750000D02*
G75*
G02X132800000Y-19750000I4000000J0D01*
G01*
X146800000Y-19750000D02*
G75*
G02X150800000Y-23750000I0J-4000000D01*
G01*
X139900000Y-20450000D02*
X137300000Y-20450000D01*
X139900000Y-19750000D02*
X139900000Y-20450000D01*
X150800000Y-33950000D02*
X150800000Y-39450000D01*
X149300000Y-33950000D02*
X150800000Y-33950000D01*
X149300000Y-30950000D02*
X149300000Y-33950000D01*
X150800000Y-30950000D02*
X149300000Y-30950000D01*
X134300000Y-20450000D02*
X137300000Y-20450000D01*
X159300000Y-44050000D02*
X170300000Y-44050000D01*
X171800000Y-19750000D02*
X164900000Y-19750000D01*
X134300000Y-44050000D02*
X145300000Y-44050000D01*
X146800000Y-19750000D02*
X139900000Y-19750000D01*
X156400000Y-43450000D02*
X156700000Y-43450000D01*
X156700000Y-43450000D02*
X156700000Y-40050000D01*
X156700000Y-40050000D02*
X156400000Y-40050000D01*
X158700000Y-43450000D02*
X158400000Y-43450000D01*
X158400000Y-43450000D02*
X158400000Y-40050000D01*
X158400000Y-40050000D02*
X158700000Y-40050000D01*
X171200000Y-43450000D02*
X171200000Y-40050000D01*
X172900000Y-40050000D02*
X172900000Y-43450000D01*
X173200000Y-43450000D02*
X172900000Y-43450000D01*
X171200000Y-43450000D02*
X170900000Y-43450000D01*
X170900000Y-40050000D02*
X171200000Y-40050000D01*
X172900000Y-40050000D02*
X173200000Y-40050000D01*
X147900000Y-40050000D02*
X148200000Y-40050000D01*
X145900000Y-40050000D02*
X146200000Y-40050000D01*
X146200000Y-43450000D02*
X145900000Y-43450000D01*
X148200000Y-43450000D02*
X147900000Y-43450000D01*
X147900000Y-40050000D02*
X147900000Y-43450000D01*
X146200000Y-43450000D02*
X146200000Y-40050000D01*
X133400000Y-40050000D02*
X133700000Y-40050000D01*
X133400000Y-43450000D02*
X133400000Y-40050000D01*
X133700000Y-43450000D02*
X133400000Y-43450000D01*
X131700000Y-40050000D02*
X131400000Y-40050000D01*
X131700000Y-43450000D02*
X131700000Y-40050000D01*
X131400000Y-43450000D02*
X131700000Y-43450000D01*
X197900000Y-40050000D02*
X198200000Y-40050000D01*
X195900000Y-40050000D02*
X196200000Y-40050000D01*
X196200000Y-43450000D02*
X195900000Y-43450000D01*
X198200000Y-43450000D02*
X197900000Y-43450000D01*
X197900000Y-40050000D02*
X197900000Y-43450000D01*
X196200000Y-43450000D02*
X196200000Y-40050000D01*
X183400000Y-40050000D02*
X183700000Y-40050000D01*
X183400000Y-43450000D02*
X183400000Y-40050000D01*
X183700000Y-43450000D02*
X183400000Y-43450000D01*
X181700000Y-40050000D02*
X181400000Y-40050000D01*
X181700000Y-43450000D02*
X181700000Y-40050000D01*
X181400000Y-43450000D02*
X181700000Y-43450000D01*
X206400000Y-43450000D02*
X206700000Y-43450000D01*
X206700000Y-43450000D02*
X206700000Y-40050000D01*
X206700000Y-40050000D02*
X206400000Y-40050000D01*
X208700000Y-43450000D02*
X208400000Y-43450000D01*
X208400000Y-43450000D02*
X208400000Y-40050000D01*
X208400000Y-40050000D02*
X208700000Y-40050000D01*
X221200000Y-43450000D02*
X221200000Y-40050000D01*
X222900000Y-40050000D02*
X222900000Y-43450000D01*
X223200000Y-43450000D02*
X222900000Y-43450000D01*
X221200000Y-43450000D02*
X220900000Y-43450000D01*
X220900000Y-40050000D02*
X221200000Y-40050000D01*
X222900000Y-40050000D02*
X223200000Y-40050000D01*
X222900000Y-88050000D02*
X223200000Y-88050000D01*
X220900000Y-88050000D02*
X221200000Y-88050000D01*
X221200000Y-91450000D02*
X220900000Y-91450000D01*
X223200000Y-91450000D02*
X222900000Y-91450000D01*
X222900000Y-88050000D02*
X222900000Y-91450000D01*
X221200000Y-91450000D02*
X221200000Y-88050000D01*
X208400000Y-88050000D02*
X208700000Y-88050000D01*
X208400000Y-91450000D02*
X208400000Y-88050000D01*
X208700000Y-91450000D02*
X208400000Y-91450000D01*
X206700000Y-88050000D02*
X206400000Y-88050000D01*
X206700000Y-91450000D02*
X206700000Y-88050000D01*
X206400000Y-91450000D02*
X206700000Y-91450000D01*
X181400000Y-91450000D02*
X181700000Y-91450000D01*
X181700000Y-91450000D02*
X181700000Y-88050000D01*
X181700000Y-88050000D02*
X181400000Y-88050000D01*
X183700000Y-91450000D02*
X183400000Y-91450000D01*
X183400000Y-91450000D02*
X183400000Y-88050000D01*
X183400000Y-88050000D02*
X183700000Y-88050000D01*
X196200000Y-91450000D02*
X196200000Y-88050000D01*
X197900000Y-88050000D02*
X197900000Y-91450000D01*
X198200000Y-91450000D02*
X197900000Y-91450000D01*
X196200000Y-91450000D02*
X195900000Y-91450000D01*
X195900000Y-88050000D02*
X196200000Y-88050000D01*
X197900000Y-88050000D02*
X198200000Y-88050000D01*
X131400000Y-91450000D02*
X131700000Y-91450000D01*
X131700000Y-91450000D02*
X131700000Y-88050000D01*
X131700000Y-88050000D02*
X131400000Y-88050000D01*
X133700000Y-91450000D02*
X133400000Y-91450000D01*
X133400000Y-91450000D02*
X133400000Y-88050000D01*
X133400000Y-88050000D02*
X133700000Y-88050000D01*
X146200000Y-91450000D02*
X146200000Y-88050000D01*
X147900000Y-88050000D02*
X147900000Y-91450000D01*
X148200000Y-91450000D02*
X147900000Y-91450000D01*
X146200000Y-91450000D02*
X145900000Y-91450000D01*
X145900000Y-88050000D02*
X146200000Y-88050000D01*
X147900000Y-88050000D02*
X148200000Y-88050000D01*
X172900000Y-88050000D02*
X173200000Y-88050000D01*
X170900000Y-88050000D02*
X171200000Y-88050000D01*
X171200000Y-91450000D02*
X170900000Y-91450000D01*
X173200000Y-91450000D02*
X172900000Y-91450000D01*
X172900000Y-88050000D02*
X172900000Y-91450000D01*
X171200000Y-91450000D02*
X171200000Y-88050000D01*
X158400000Y-88050000D02*
X158700000Y-88050000D01*
X158400000Y-91450000D02*
X158400000Y-88050000D01*
X158700000Y-91450000D02*
X158400000Y-91450000D01*
X156700000Y-88050000D02*
X156400000Y-88050000D01*
X156700000Y-91450000D02*
X156700000Y-88050000D01*
X156400000Y-91450000D02*
X156700000Y-91450000D01*
X134300000Y-92050000D02*
X145300000Y-92050000D01*
X159300000Y-92050000D02*
X170300000Y-92050000D01*
X134300000Y-68450000D02*
X137300000Y-68450000D01*
X150800000Y-78950000D02*
X149300000Y-78950000D01*
X149300000Y-78950000D02*
X149300000Y-81950000D01*
X149300000Y-81950000D02*
X150800000Y-81950000D01*
X150800000Y-81950000D02*
X150800000Y-87450000D01*
X139900000Y-67750000D02*
X139900000Y-68450000D01*
X139900000Y-68450000D02*
X137300000Y-68450000D01*
X146800000Y-67750000D02*
G75*
G02X150800000Y-71750000I0J-4000000D01*
G01*
X128800000Y-71750000D02*
G75*
G02X132800000Y-67750000I4000000J0D01*
G01*
X128800000Y-71750000D02*
X128800000Y-87450000D01*
X132800000Y-67750000D02*
X132800000Y-68450000D01*
X132800000Y-68450000D02*
X134300000Y-68450000D01*
X131400000Y-88050000D02*
G75*
G02X130800000Y-87450000I0J600000D01*
G01*
X134300000Y-87450000D02*
G75*
G02X133700000Y-88050000I-600000J0D01*
G01*
X145900000Y-88050000D02*
G75*
G02X145300000Y-87450000I0J600000D01*
G01*
X148800000Y-87450000D02*
G75*
G02X148200000Y-88050000I-600000J0D01*
G01*
X130800000Y-87450000D02*
X128800000Y-87450000D01*
X134300000Y-87450000D02*
X145300000Y-87450000D01*
X148800000Y-87450000D02*
X150800000Y-87450000D01*
X173800000Y-87450000D02*
X175800000Y-87450000D01*
X159300000Y-87450000D02*
X170300000Y-87450000D01*
X155800000Y-87450000D02*
X153800000Y-87450000D01*
X173800000Y-87450000D02*
G75*
G02X173200000Y-88050000I-600000J0D01*
G01*
X170900000Y-88050000D02*
G75*
G02X170300000Y-87450000I0J600000D01*
G01*
X159300000Y-87450000D02*
G75*
G02X158700000Y-88050000I-600000J0D01*
G01*
X156400000Y-88050000D02*
G75*
G02X155800000Y-87450000I0J600000D01*
G01*
X157800000Y-68450000D02*
X159300000Y-68450000D01*
X157800000Y-67750000D02*
X157800000Y-68450000D01*
X153800000Y-71750000D02*
G75*
G02X157800000Y-67750000I4000000J0D01*
G01*
X171800000Y-67750000D02*
G75*
G02X175800000Y-71750000I0J-4000000D01*
G01*
X164900000Y-68450000D02*
X162300000Y-68450000D01*
X164900000Y-67750000D02*
X164900000Y-68450000D01*
X175800000Y-81950000D02*
X175800000Y-87450000D01*
X174300000Y-81950000D02*
X175800000Y-81950000D01*
X174300000Y-78950000D02*
X174300000Y-81950000D01*
X175800000Y-78950000D02*
X174300000Y-78950000D01*
X159300000Y-68450000D02*
X162300000Y-68450000D01*
X184300000Y-68450000D02*
X187300000Y-68450000D01*
X200800000Y-78950000D02*
X199300000Y-78950000D01*
X199300000Y-78950000D02*
X199300000Y-81950000D01*
X199300000Y-81950000D02*
X200800000Y-81950000D01*
X200800000Y-81950000D02*
X200800000Y-87450000D01*
X189900000Y-67750000D02*
X189900000Y-68450000D01*
X189900000Y-68450000D02*
X187300000Y-68450000D01*
X196800000Y-67750000D02*
G75*
G02X200800000Y-71750000I0J-4000000D01*
G01*
X178800000Y-71750000D02*
G75*
G02X182800000Y-67750000I4000000J0D01*
G01*
X182800000Y-67750000D02*
X182800000Y-68450000D01*
X182800000Y-68450000D02*
X184300000Y-68450000D01*
X181400000Y-88050000D02*
G75*
G02X180800000Y-87450000I0J600000D01*
G01*
X184300000Y-87450000D02*
G75*
G02X183700000Y-88050000I-600000J0D01*
G01*
X195900000Y-88050000D02*
G75*
G02X195300000Y-87450000I0J600000D01*
G01*
X198800000Y-87450000D02*
G75*
G02X198200000Y-88050000I-600000J0D01*
G01*
X180800000Y-87450000D02*
X178800000Y-87450000D01*
X184300000Y-87450000D02*
X195300000Y-87450000D01*
X198800000Y-87450000D02*
X200800000Y-87450000D01*
X223800000Y-87450000D02*
X225800000Y-87450000D01*
X209300000Y-87450000D02*
X220300000Y-87450000D01*
X205800000Y-87450000D02*
X203800000Y-87450000D01*
X223800000Y-87450000D02*
G75*
G02X223200000Y-88050000I-600000J0D01*
G01*
X220900000Y-88050000D02*
G75*
G02X220300000Y-87450000I0J600000D01*
G01*
X209300000Y-87450000D02*
G75*
G02X208700000Y-88050000I-600000J0D01*
G01*
X206400000Y-88050000D02*
G75*
G02X205800000Y-87450000I0J600000D01*
G01*
X207800000Y-68450000D02*
X209300000Y-68450000D01*
X207800000Y-67750000D02*
X207800000Y-68450000D01*
X203800000Y-71750000D02*
G75*
G02X207800000Y-67750000I4000000J0D01*
G01*
X225800000Y-71750000D02*
X225800000Y-78950000D01*
X221800000Y-67750000D02*
G75*
G02X225800000Y-71750000I0J-4000000D01*
G01*
X214900000Y-68450000D02*
X212300000Y-68450000D01*
X214900000Y-67750000D02*
X214900000Y-68450000D01*
X225800000Y-81950000D02*
X225800000Y-87450000D01*
X224300000Y-81950000D02*
X225800000Y-81950000D01*
X224300000Y-78950000D02*
X224300000Y-81950000D01*
X225800000Y-78950000D02*
X224300000Y-78950000D01*
X209300000Y-68450000D02*
X212300000Y-68450000D01*
X150800000Y-77450000D02*
X153800000Y-77450000D01*
X150800000Y-75450000D02*
X153800000Y-75450000D01*
X150800000Y-78950000D02*
X150800000Y-77450000D01*
X150800000Y-75450000D02*
X150800000Y-71750000D01*
X153800000Y-77450000D02*
X153800000Y-87450000D01*
X153800000Y-71750000D02*
X153800000Y-75450000D01*
X175800000Y-77450000D02*
X178800000Y-77450000D01*
X175800000Y-75450000D02*
X178800000Y-75450000D01*
X175800000Y-78950000D02*
X175800000Y-77450000D01*
X175800000Y-75450000D02*
X175800000Y-71750000D01*
X178800000Y-71750000D02*
X178800000Y-75450000D01*
X178800000Y-77450000D02*
X178800000Y-87450000D01*
X200800000Y-77450000D02*
X203800000Y-77450000D01*
X200800000Y-75450000D02*
X203800000Y-75450000D01*
X203800000Y-87450000D02*
X203800000Y-77450000D01*
X200800000Y-78950000D02*
X200800000Y-77450000D01*
X200800000Y-75450000D02*
X200800000Y-71750000D01*
X203800000Y-75450000D02*
X203800000Y-71750000D01*
X203800000Y-104050000D02*
X203800000Y-107750000D01*
X200800000Y-104050000D02*
X200800000Y-107750000D01*
X200800000Y-100550000D02*
X200800000Y-102050000D01*
X203800000Y-92050000D02*
X203800000Y-102050000D01*
X200800000Y-104050000D02*
X203800000Y-104050000D01*
X200800000Y-102050000D02*
X203800000Y-102050000D01*
X178800000Y-102050000D02*
X178800000Y-92050000D01*
X178800000Y-107750000D02*
X178800000Y-104050000D01*
X175800000Y-104050000D02*
X175800000Y-107750000D01*
X175800000Y-100550000D02*
X175800000Y-102050000D01*
X175800000Y-104050000D02*
X178800000Y-104050000D01*
X175800000Y-102050000D02*
X178800000Y-102050000D01*
X153800000Y-107750000D02*
X153800000Y-104050000D01*
X153800000Y-102050000D02*
X153800000Y-92050000D01*
X150800000Y-104050000D02*
X150800000Y-107750000D01*
X150800000Y-100550000D02*
X150800000Y-102050000D01*
X150800000Y-104050000D02*
X153800000Y-104050000D01*
X150800000Y-102050000D02*
X153800000Y-102050000D01*
X209300000Y-111050000D02*
X212300000Y-111050000D01*
X225800000Y-100550000D02*
X224300000Y-100550000D01*
X224300000Y-100550000D02*
X224300000Y-97550000D01*
X224300000Y-97550000D02*
X225800000Y-97550000D01*
X225800000Y-97550000D02*
X225800000Y-92050000D01*
X214900000Y-111750000D02*
X214900000Y-111050000D01*
X214900000Y-111050000D02*
X212300000Y-111050000D01*
X221800000Y-111750000D02*
G75*
G03X225800000Y-107750000I0J4000000D01*
G01*
X225800000Y-107750000D02*
X225800000Y-100550000D01*
X221800000Y-111750000D02*
X214900000Y-111750000D01*
X203800000Y-107750000D02*
G75*
G03X207800000Y-111750000I4000000J0D01*
G01*
X207800000Y-111750000D02*
X207800000Y-111050000D01*
X207800000Y-111050000D02*
X209300000Y-111050000D01*
X206400000Y-91450000D02*
G75*
G03X205800000Y-92050000I0J-600000D01*
G01*
X209300000Y-92050000D02*
G75*
G03X208700000Y-91450000I-600000J0D01*
G01*
X220900000Y-91450000D02*
G75*
G03X220300000Y-92050000I0J-600000D01*
G01*
X223800000Y-92050000D02*
G75*
G03X223200000Y-91450000I-600000J0D01*
G01*
X205800000Y-92050000D02*
X203800000Y-92050000D01*
X209300000Y-92050000D02*
X220300000Y-92050000D01*
X223800000Y-92050000D02*
X225800000Y-92050000D01*
X198800000Y-92050000D02*
X200800000Y-92050000D01*
X184300000Y-92050000D02*
X195300000Y-92050000D01*
X180800000Y-92050000D02*
X178800000Y-92050000D01*
X198800000Y-92050000D02*
G75*
G03X198200000Y-91450000I-600000J0D01*
G01*
X195900000Y-91450000D02*
G75*
G03X195300000Y-92050000I0J-600000D01*
G01*
X184300000Y-92050000D02*
G75*
G03X183700000Y-91450000I-600000J0D01*
G01*
X181400000Y-91450000D02*
G75*
G03X180800000Y-92050000I0J-600000D01*
G01*
X182800000Y-111050000D02*
X184300000Y-111050000D01*
X182800000Y-111750000D02*
X182800000Y-111050000D01*
X178800000Y-107750000D02*
G75*
G03X182800000Y-111750000I4000000J0D01*
G01*
X196800000Y-111750000D02*
X189900000Y-111750000D01*
X196800000Y-111750000D02*
G75*
G03X200800000Y-107750000I0J4000000D01*
G01*
X189900000Y-111050000D02*
X187300000Y-111050000D01*
X189900000Y-111750000D02*
X189900000Y-111050000D01*
X200800000Y-97550000D02*
X200800000Y-92050000D01*
X199300000Y-97550000D02*
X200800000Y-97550000D01*
X199300000Y-100550000D02*
X199300000Y-97550000D01*
X200800000Y-100550000D02*
X199300000Y-100550000D01*
X184300000Y-111050000D02*
X187300000Y-111050000D01*
X159300000Y-111050000D02*
X162300000Y-111050000D01*
X175800000Y-100550000D02*
X174300000Y-100550000D01*
X174300000Y-100550000D02*
X174300000Y-97550000D01*
X174300000Y-97550000D02*
X175800000Y-97550000D01*
X175800000Y-97550000D02*
X175800000Y-92050000D01*
X164900000Y-111750000D02*
X164900000Y-111050000D01*
X164900000Y-111050000D02*
X162300000Y-111050000D01*
X171800000Y-111750000D02*
G75*
G03X175800000Y-107750000I0J4000000D01*
G01*
X171800000Y-111750000D02*
X164900000Y-111750000D01*
X153800000Y-107750000D02*
G75*
G03X157800000Y-111750000I4000000J0D01*
G01*
X157800000Y-111750000D02*
X157800000Y-111050000D01*
X157800000Y-111050000D02*
X159300000Y-111050000D01*
X156400000Y-91450000D02*
G75*
G03X155800000Y-92050000I0J-600000D01*
G01*
X159300000Y-92050000D02*
G75*
G03X158700000Y-91450000I-600000J0D01*
G01*
X170900000Y-91450000D02*
G75*
G03X170300000Y-92050000I0J-600000D01*
G01*
X173800000Y-92050000D02*
G75*
G03X173200000Y-91450000I-600000J0D01*
G01*
X155800000Y-92050000D02*
X153800000Y-92050000D01*
X173800000Y-92050000D02*
X175800000Y-92050000D01*
X148800000Y-92050000D02*
X150800000Y-92050000D01*
X130800000Y-92050000D02*
X128800000Y-92050000D01*
X148800000Y-92050000D02*
G75*
G03X148200000Y-91450000I-600000J0D01*
G01*
X145900000Y-91450000D02*
G75*
G03X145300000Y-92050000I0J-600000D01*
G01*
X134300000Y-92050000D02*
G75*
G03X133700000Y-91450000I-600000J0D01*
G01*
X131400000Y-91450000D02*
G75*
G03X130800000Y-92050000I0J-600000D01*
G01*
X132800000Y-111050000D02*
X134300000Y-111050000D01*
X132800000Y-111750000D02*
X132800000Y-111050000D01*
X128800000Y-107750000D02*
X128800000Y-92050000D01*
X128800000Y-107750000D02*
G75*
G03X132800000Y-111750000I4000000J0D01*
G01*
X146800000Y-111750000D02*
X139900000Y-111750000D01*
X146800000Y-111750000D02*
G75*
G03X150800000Y-107750000I0J4000000D01*
G01*
X139900000Y-111050000D02*
X137300000Y-111050000D01*
X139900000Y-111750000D02*
X139900000Y-111050000D01*
X150800000Y-97550000D02*
X150800000Y-92050000D01*
X149300000Y-97550000D02*
X150800000Y-97550000D01*
X149300000Y-100550000D02*
X149300000Y-97550000D01*
X150800000Y-100550000D02*
X149300000Y-100550000D01*
X134300000Y-111050000D02*
X137300000Y-111050000D01*
D12*
X190300000Y-64150000D03*
X191200000Y-64150000D03*
X191200000Y-67350000D03*
X190300000Y-67350000D03*
X215300000Y-67350000D03*
X216200000Y-67350000D03*
X216200000Y-64150000D03*
X215300000Y-64150000D03*
X165300000Y-64150000D03*
X166200000Y-64150000D03*
X166200000Y-67350000D03*
X165300000Y-67350000D03*
X140300000Y-67350000D03*
X141200000Y-67350000D03*
X141200000Y-64150000D03*
X140300000Y-64150000D03*
D13*
X138405000Y-55830000D03*
X139675000Y-55830000D03*
X140945000Y-55830000D03*
X142215000Y-55830000D03*
X142215000Y-48530000D03*
X140945000Y-48530000D03*
X139675000Y-48530000D03*
X138405000Y-48530000D03*
D14*
X132325000Y-49450000D03*
X132325000Y-50950000D03*
X132325000Y-53950000D03*
X132325000Y-52450000D03*
X130325000Y-48700000D03*
X130325000Y-54700000D03*
X130325000Y-53200000D03*
X130325000Y-50200000D03*
X130325000Y-51700000D03*
X145125000Y-53975000D03*
X145125000Y-52475000D03*
X145125000Y-49475000D03*
X145125000Y-50975000D03*
X147125000Y-54725000D03*
X147125000Y-48725000D03*
X147125000Y-50225000D03*
X147125000Y-51725000D03*
D15*
X136590000Y-55510000D03*
X135640000Y-55510000D03*
X134690000Y-55510000D03*
X134690000Y-57710000D03*
X136590000Y-57710000D03*
X135640000Y-57710000D03*
D16*
X138460000Y-58920000D03*
X138460000Y-57420000D03*
D17*
X132850000Y-47050000D03*
X131350000Y-47050000D03*
D16*
X144100000Y-46500000D03*
X144100000Y-45000000D03*
X135500000Y-46400000D03*
X135500000Y-44900000D03*
X140540000Y-58960000D03*
X140540000Y-57460000D03*
D18*
X136370000Y-50450000D03*
X134870000Y-50450000D03*
X136370000Y-49070000D03*
X134870000Y-49070000D03*
X134860000Y-52290000D03*
X136360000Y-52290000D03*
X134860000Y-53670000D03*
X136360000Y-53670000D03*
D19*
X144800000Y-61000000D03*
D20*
X143550000Y-61000000D03*
X142300000Y-61000000D03*
X141050000Y-61000000D03*
X139800000Y-61000000D03*
X138550000Y-61000000D03*
X137300000Y-61000000D03*
X136050000Y-61000000D03*
X134800000Y-61000000D03*
D21*
X131460000Y-44850000D03*
X133660000Y-44850000D03*
X148130000Y-44850000D03*
X145930000Y-44850000D03*
D22*
X132000000Y-58050000D03*
X147600000Y-58050000D03*
D23*
X131425000Y-44075000D03*
X133700000Y-44075000D03*
X145900000Y-44075000D03*
X148150000Y-44075000D03*
D12*
X138950000Y-44840000D03*
D24*
X141475000Y-46390000D03*
X138125000Y-46390000D03*
D25*
X137500000Y-44840000D03*
X142100000Y-44840000D03*
D12*
X140650000Y-44840000D03*
D16*
X141990000Y-58960000D03*
X141990000Y-57460000D03*
D26*
X147880000Y-46930000D03*
X149980000Y-46930000D03*
X172880000Y-46930000D03*
X174980000Y-46930000D03*
D16*
X166990000Y-58960000D03*
X166990000Y-57460000D03*
D12*
X163950000Y-44840000D03*
D24*
X166475000Y-46390000D03*
X163125000Y-46390000D03*
D25*
X162500000Y-44840000D03*
X167100000Y-44840000D03*
D12*
X165650000Y-44840000D03*
D23*
X173150000Y-44075000D03*
X170900000Y-44075000D03*
X158700000Y-44075000D03*
X156425000Y-44075000D03*
D22*
X172600000Y-58050000D03*
X157000000Y-58050000D03*
D21*
X173130000Y-44850000D03*
X170930000Y-44850000D03*
X156460000Y-44850000D03*
X158660000Y-44850000D03*
D19*
X169800000Y-61000000D03*
D20*
X168550000Y-61000000D03*
X167300000Y-61000000D03*
X166050000Y-61000000D03*
X164800000Y-61000000D03*
X163550000Y-61000000D03*
X162300000Y-61000000D03*
X161050000Y-61000000D03*
X159800000Y-61000000D03*
D18*
X159860000Y-53670000D03*
X161360000Y-53670000D03*
X159860000Y-52290000D03*
X161360000Y-52290000D03*
X161370000Y-49070000D03*
X159870000Y-49070000D03*
X161370000Y-50450000D03*
X159870000Y-50450000D03*
D16*
X165540000Y-58960000D03*
X165540000Y-57460000D03*
X160500000Y-46400000D03*
X160500000Y-44900000D03*
X169100000Y-46500000D03*
X169100000Y-45000000D03*
D17*
X157850000Y-47050000D03*
X156350000Y-47050000D03*
D16*
X163460000Y-58920000D03*
X163460000Y-57420000D03*
D15*
X161590000Y-55510000D03*
X160640000Y-55510000D03*
X159690000Y-55510000D03*
X159690000Y-57710000D03*
X161590000Y-57710000D03*
X160640000Y-57710000D03*
D14*
X170125000Y-53975000D03*
X170125000Y-52475000D03*
X170125000Y-49475000D03*
X170125000Y-50975000D03*
X172125000Y-54725000D03*
X172125000Y-48725000D03*
X172125000Y-50225000D03*
X172125000Y-51725000D03*
X157325000Y-49450000D03*
X157325000Y-50950000D03*
X157325000Y-53950000D03*
X157325000Y-52450000D03*
X155325000Y-48700000D03*
X155325000Y-54700000D03*
X155325000Y-53200000D03*
X155325000Y-50200000D03*
X155325000Y-51700000D03*
D13*
X163405000Y-55830000D03*
X164675000Y-55830000D03*
X165945000Y-55830000D03*
X167215000Y-55830000D03*
X167215000Y-48530000D03*
X165945000Y-48530000D03*
X164675000Y-48530000D03*
X163405000Y-48530000D03*
X188405000Y-55830000D03*
X189675000Y-55830000D03*
X190945000Y-55830000D03*
X192215000Y-55830000D03*
X192215000Y-48530000D03*
X190945000Y-48530000D03*
X189675000Y-48530000D03*
X188405000Y-48530000D03*
D14*
X182325000Y-49450000D03*
X182325000Y-50950000D03*
X182325000Y-53950000D03*
X182325000Y-52450000D03*
X180325000Y-48700000D03*
X180325000Y-54700000D03*
X180325000Y-53200000D03*
X180325000Y-50200000D03*
X180325000Y-51700000D03*
X195125000Y-53975000D03*
X195125000Y-52475000D03*
X195125000Y-49475000D03*
X195125000Y-50975000D03*
X197125000Y-54725000D03*
X197125000Y-48725000D03*
X197125000Y-50225000D03*
X197125000Y-51725000D03*
D15*
X186590000Y-55510000D03*
X185640000Y-55510000D03*
X184690000Y-55510000D03*
X184690000Y-57710000D03*
X186590000Y-57710000D03*
X185640000Y-57710000D03*
D16*
X188460000Y-58920000D03*
X188460000Y-57420000D03*
D17*
X182850000Y-47050000D03*
X181350000Y-47050000D03*
D16*
X194100000Y-46500000D03*
X194100000Y-45000000D03*
X185500000Y-46400000D03*
X185500000Y-44900000D03*
X190540000Y-58960000D03*
X190540000Y-57460000D03*
D18*
X186370000Y-50450000D03*
X184870000Y-50450000D03*
X186370000Y-49070000D03*
X184870000Y-49070000D03*
X184860000Y-52290000D03*
X186360000Y-52290000D03*
X184860000Y-53670000D03*
X186360000Y-53670000D03*
D19*
X194800000Y-61000000D03*
D20*
X193550000Y-61000000D03*
X192300000Y-61000000D03*
X191050000Y-61000000D03*
X189800000Y-61000000D03*
X188550000Y-61000000D03*
X187300000Y-61000000D03*
X186050000Y-61000000D03*
X184800000Y-61000000D03*
D21*
X181460000Y-44850000D03*
X183660000Y-44850000D03*
X198130000Y-44850000D03*
X195930000Y-44850000D03*
D22*
X182000000Y-58050000D03*
X197600000Y-58050000D03*
D23*
X181425000Y-44075000D03*
X183700000Y-44075000D03*
X195900000Y-44075000D03*
X198150000Y-44075000D03*
D12*
X188950000Y-44840000D03*
D24*
X191475000Y-46390000D03*
X188125000Y-46390000D03*
D25*
X187500000Y-44840000D03*
X192100000Y-44840000D03*
D12*
X190650000Y-44840000D03*
D16*
X191990000Y-58960000D03*
X191990000Y-57460000D03*
D26*
X197880000Y-46930000D03*
X199980000Y-46930000D03*
X222880000Y-46930000D03*
X224980000Y-46930000D03*
D16*
X216990000Y-58960000D03*
X216990000Y-57460000D03*
D12*
X213950000Y-44840000D03*
D24*
X216475000Y-46390000D03*
X213125000Y-46390000D03*
D25*
X212500000Y-44840000D03*
X217100000Y-44840000D03*
D12*
X215650000Y-44840000D03*
D23*
X223150000Y-44075000D03*
X220900000Y-44075000D03*
X208700000Y-44075000D03*
X206425000Y-44075000D03*
D22*
X222600000Y-58050000D03*
X207000000Y-58050000D03*
D21*
X223130000Y-44850000D03*
X220930000Y-44850000D03*
X206460000Y-44850000D03*
X208660000Y-44850000D03*
D19*
X219800000Y-61000000D03*
D20*
X218550000Y-61000000D03*
X217300000Y-61000000D03*
X216050000Y-61000000D03*
X214800000Y-61000000D03*
X213550000Y-61000000D03*
X212300000Y-61000000D03*
X211050000Y-61000000D03*
X209800000Y-61000000D03*
D18*
X209860000Y-53670000D03*
X211360000Y-53670000D03*
X209860000Y-52290000D03*
X211360000Y-52290000D03*
X211370000Y-49070000D03*
X209870000Y-49070000D03*
X211370000Y-50450000D03*
X209870000Y-50450000D03*
D16*
X215540000Y-58960000D03*
X215540000Y-57460000D03*
X210500000Y-46400000D03*
X210500000Y-44900000D03*
X219100000Y-46500000D03*
X219100000Y-45000000D03*
D17*
X207850000Y-47050000D03*
X206350000Y-47050000D03*
D16*
X213460000Y-58920000D03*
X213460000Y-57420000D03*
D15*
X211590000Y-55510000D03*
X210640000Y-55510000D03*
X209690000Y-55510000D03*
X209690000Y-57710000D03*
X211590000Y-57710000D03*
X210640000Y-57710000D03*
D14*
X220125000Y-53975000D03*
X220125000Y-52475000D03*
X220125000Y-49475000D03*
X220125000Y-50975000D03*
X222125000Y-54725000D03*
X222125000Y-48725000D03*
X222125000Y-50225000D03*
X222125000Y-51725000D03*
X207325000Y-49450000D03*
X207325000Y-50950000D03*
X207325000Y-53950000D03*
X207325000Y-52450000D03*
X205325000Y-48700000D03*
X205325000Y-54700000D03*
X205325000Y-53200000D03*
X205325000Y-50200000D03*
X205325000Y-51700000D03*
D13*
X213405000Y-55830000D03*
X214675000Y-55830000D03*
X215945000Y-55830000D03*
X217215000Y-55830000D03*
X217215000Y-48530000D03*
X215945000Y-48530000D03*
X214675000Y-48530000D03*
X213405000Y-48530000D03*
D12*
X151300000Y-54550000D03*
X151300000Y-55550000D03*
X153300000Y-55550000D03*
X153300000Y-54550000D03*
X176300000Y-54550000D03*
X176300000Y-55550000D03*
X178300000Y-54550000D03*
X178300000Y-55550000D03*
X201300000Y-54550000D03*
X201300000Y-55550000D03*
X203300000Y-55550000D03*
X203300000Y-54550000D03*
X203300000Y-28950000D03*
X203300000Y-27950000D03*
X201300000Y-27950000D03*
X201300000Y-28950000D03*
X178300000Y-27950000D03*
X178300000Y-28950000D03*
X176300000Y-27950000D03*
X176300000Y-28950000D03*
X153300000Y-28950000D03*
X153300000Y-27950000D03*
X151300000Y-27950000D03*
X151300000Y-28950000D03*
D27*
X219025000Y-38250000D03*
X217775000Y-38250000D03*
X216525000Y-38250000D03*
X210575000Y-38250000D03*
X211825000Y-38250000D03*
X213075000Y-38250000D03*
D21*
X206460000Y-38650000D03*
X208660000Y-38650000D03*
X223130000Y-38650000D03*
X220930000Y-38650000D03*
D16*
X220175000Y-21675000D03*
X220175000Y-20175000D03*
X218550000Y-21675000D03*
X218550000Y-20175000D03*
X216925000Y-21675000D03*
X216925000Y-20175000D03*
D19*
X219800000Y-22500000D03*
D20*
X218550000Y-22500000D03*
X217300000Y-22500000D03*
X216050000Y-22500000D03*
X214800000Y-22500000D03*
X213550000Y-22500000D03*
X212300000Y-22500000D03*
X211050000Y-22500000D03*
X209800000Y-22500000D03*
D22*
X207000000Y-25450000D03*
X222600000Y-25450000D03*
D23*
X206425000Y-39425000D03*
X208700000Y-39425000D03*
X220900000Y-39425000D03*
X223150000Y-39425000D03*
D12*
X213950000Y-38660000D03*
X215650000Y-38660000D03*
X188950000Y-38660000D03*
X190650000Y-38660000D03*
D23*
X198150000Y-39425000D03*
X195900000Y-39425000D03*
X183700000Y-39425000D03*
X181425000Y-39425000D03*
D22*
X197600000Y-25450000D03*
X182000000Y-25450000D03*
D19*
X194800000Y-22500000D03*
D20*
X193550000Y-22500000D03*
X192300000Y-22500000D03*
X191050000Y-22500000D03*
X189800000Y-22500000D03*
X188550000Y-22500000D03*
X187300000Y-22500000D03*
X186050000Y-22500000D03*
X184800000Y-22500000D03*
D16*
X191925000Y-21675000D03*
X191925000Y-20175000D03*
X193550000Y-21675000D03*
X193550000Y-20175000D03*
X195175000Y-21675000D03*
X195175000Y-20175000D03*
D21*
X198130000Y-38650000D03*
X195930000Y-38650000D03*
X181460000Y-38650000D03*
X183660000Y-38650000D03*
D27*
X185575000Y-38250000D03*
X186825000Y-38250000D03*
X188075000Y-38250000D03*
X194025000Y-38250000D03*
X192775000Y-38250000D03*
X191525000Y-38250000D03*
X169025000Y-38250000D03*
X167775000Y-38250000D03*
X166525000Y-38250000D03*
X160575000Y-38250000D03*
X161825000Y-38250000D03*
X163075000Y-38250000D03*
D21*
X156460000Y-38650000D03*
X158660000Y-38650000D03*
X173130000Y-38650000D03*
X170930000Y-38650000D03*
D16*
X170175000Y-21675000D03*
X170175000Y-20175000D03*
X168550000Y-21675000D03*
X168550000Y-20175000D03*
X166925000Y-21675000D03*
X166925000Y-20175000D03*
D19*
X169800000Y-22500000D03*
D20*
X168550000Y-22500000D03*
X167300000Y-22500000D03*
X166050000Y-22500000D03*
X164800000Y-22500000D03*
X163550000Y-22500000D03*
X162300000Y-22500000D03*
X161050000Y-22500000D03*
X159800000Y-22500000D03*
D22*
X157000000Y-25450000D03*
X172600000Y-25450000D03*
D23*
X156425000Y-39425000D03*
X158700000Y-39425000D03*
X170900000Y-39425000D03*
X173150000Y-39425000D03*
D12*
X163950000Y-38660000D03*
X165650000Y-38660000D03*
X138950000Y-38660000D03*
X140650000Y-38660000D03*
D23*
X148150000Y-39425000D03*
X145900000Y-39425000D03*
X133700000Y-39425000D03*
X131425000Y-39425000D03*
D22*
X147600000Y-25450000D03*
X132000000Y-25450000D03*
D19*
X144800000Y-22500000D03*
D20*
X143550000Y-22500000D03*
X142300000Y-22500000D03*
X141050000Y-22500000D03*
X139800000Y-22500000D03*
X138550000Y-22500000D03*
X137300000Y-22500000D03*
X136050000Y-22500000D03*
X134800000Y-22500000D03*
D16*
X141925000Y-21675000D03*
X141925000Y-20175000D03*
X143550000Y-21675000D03*
X143550000Y-20175000D03*
X145175000Y-21675000D03*
X145175000Y-20175000D03*
D21*
X148130000Y-38650000D03*
X145930000Y-38650000D03*
X131460000Y-38650000D03*
X133660000Y-38650000D03*
D27*
X135575000Y-38250000D03*
X136825000Y-38250000D03*
X138075000Y-38250000D03*
X144025000Y-38250000D03*
X142775000Y-38250000D03*
X141525000Y-38250000D03*
D12*
X132100000Y-43450000D03*
X133000000Y-43450000D03*
X132100000Y-40050000D03*
X133000000Y-40050000D03*
X146600000Y-40050000D03*
X147500000Y-40050000D03*
X146600000Y-43450000D03*
X147500000Y-43450000D03*
X157100000Y-40050000D03*
X158000000Y-40050000D03*
X157100000Y-43450000D03*
X158000000Y-43450000D03*
X171600000Y-43450000D03*
X172500000Y-43450000D03*
X172500000Y-40050000D03*
X171600000Y-40050000D03*
X182100000Y-40050000D03*
X183000000Y-40050000D03*
X183000000Y-43450000D03*
X182100000Y-43450000D03*
X196600000Y-43450000D03*
X197500000Y-43450000D03*
X197500000Y-40050000D03*
X196600000Y-40050000D03*
X207100000Y-40050000D03*
X208000000Y-40050000D03*
X208000000Y-43450000D03*
X207100000Y-43450000D03*
X221600000Y-43450000D03*
X222500000Y-43450000D03*
X222500000Y-40050000D03*
X221600000Y-40050000D03*
X221600000Y-88050000D03*
X222500000Y-88050000D03*
X222500000Y-91450000D03*
X221600000Y-91450000D03*
X207100000Y-91450000D03*
X208000000Y-91450000D03*
X208000000Y-88050000D03*
X207100000Y-88050000D03*
X196600000Y-88050000D03*
X197500000Y-88050000D03*
X197500000Y-91450000D03*
X196600000Y-91450000D03*
X182100000Y-91450000D03*
X183000000Y-91450000D03*
X183000000Y-88050000D03*
X182100000Y-88050000D03*
X171600000Y-88050000D03*
X172500000Y-88050000D03*
X172500000Y-91450000D03*
X171600000Y-91450000D03*
X158000000Y-91450000D03*
X157100000Y-91450000D03*
X158000000Y-88050000D03*
X157100000Y-88050000D03*
X147500000Y-91450000D03*
X146600000Y-91450000D03*
X147500000Y-88050000D03*
X146600000Y-88050000D03*
X133000000Y-88050000D03*
X132100000Y-88050000D03*
X133000000Y-91450000D03*
X132100000Y-91450000D03*
D27*
X144025000Y-86250000D03*
X142775000Y-86250000D03*
X141525000Y-86250000D03*
X135575000Y-86250000D03*
X136825000Y-86250000D03*
X138075000Y-86250000D03*
D21*
X131460000Y-86650000D03*
X133660000Y-86650000D03*
X148130000Y-86650000D03*
X145930000Y-86650000D03*
D16*
X145175000Y-69675000D03*
X145175000Y-68175000D03*
X143550000Y-69675000D03*
X143550000Y-68175000D03*
X141925000Y-69675000D03*
X141925000Y-68175000D03*
D19*
X144800000Y-70500000D03*
D20*
X143550000Y-70500000D03*
X142300000Y-70500000D03*
X141050000Y-70500000D03*
X139800000Y-70500000D03*
X138550000Y-70500000D03*
X137300000Y-70500000D03*
X136050000Y-70500000D03*
X134800000Y-70500000D03*
D22*
X132000000Y-73450000D03*
X147600000Y-73450000D03*
D23*
X131425000Y-87425000D03*
X133700000Y-87425000D03*
X145900000Y-87425000D03*
X148150000Y-87425000D03*
D12*
X138950000Y-86660000D03*
X140650000Y-86660000D03*
X163950000Y-86660000D03*
X165650000Y-86660000D03*
D23*
X173150000Y-87425000D03*
X170900000Y-87425000D03*
X158700000Y-87425000D03*
X156425000Y-87425000D03*
D22*
X172600000Y-73450000D03*
X157000000Y-73450000D03*
D19*
X169800000Y-70500000D03*
D20*
X168550000Y-70500000D03*
X167300000Y-70500000D03*
X166050000Y-70500000D03*
X164800000Y-70500000D03*
X163550000Y-70500000D03*
X162300000Y-70500000D03*
X161050000Y-70500000D03*
X159800000Y-70500000D03*
D16*
X166925000Y-69675000D03*
X166925000Y-68175000D03*
X168550000Y-69675000D03*
X168550000Y-68175000D03*
X170175000Y-69675000D03*
X170175000Y-68175000D03*
D21*
X173130000Y-86650000D03*
X170930000Y-86650000D03*
X156460000Y-86650000D03*
X158660000Y-86650000D03*
D27*
X160575000Y-86250000D03*
X161825000Y-86250000D03*
X163075000Y-86250000D03*
X169025000Y-86250000D03*
X167775000Y-86250000D03*
X166525000Y-86250000D03*
X194025000Y-86250000D03*
X192775000Y-86250000D03*
X191525000Y-86250000D03*
X185575000Y-86250000D03*
X186825000Y-86250000D03*
X188075000Y-86250000D03*
D21*
X181460000Y-86650000D03*
X183660000Y-86650000D03*
X198130000Y-86650000D03*
X195930000Y-86650000D03*
D16*
X195175000Y-69675000D03*
X195175000Y-68175000D03*
X193550000Y-69675000D03*
X193550000Y-68175000D03*
X191925000Y-69675000D03*
X191925000Y-68175000D03*
D19*
X194800000Y-70500000D03*
D20*
X193550000Y-70500000D03*
X192300000Y-70500000D03*
X191050000Y-70500000D03*
X189800000Y-70500000D03*
X188550000Y-70500000D03*
X187300000Y-70500000D03*
X186050000Y-70500000D03*
X184800000Y-70500000D03*
D22*
X182000000Y-73450000D03*
X197600000Y-73450000D03*
D23*
X181425000Y-87425000D03*
X183700000Y-87425000D03*
X195900000Y-87425000D03*
X198150000Y-87425000D03*
D12*
X188950000Y-86660000D03*
X190650000Y-86660000D03*
X213950000Y-86660000D03*
X215650000Y-86660000D03*
D23*
X223150000Y-87425000D03*
X220900000Y-87425000D03*
X208700000Y-87425000D03*
X206425000Y-87425000D03*
D22*
X222600000Y-73450000D03*
X207000000Y-73450000D03*
D19*
X219800000Y-70500000D03*
D20*
X218550000Y-70500000D03*
X217300000Y-70500000D03*
X216050000Y-70500000D03*
X214800000Y-70500000D03*
X213550000Y-70500000D03*
X212300000Y-70500000D03*
X211050000Y-70500000D03*
X209800000Y-70500000D03*
D16*
X216925000Y-69675000D03*
X216925000Y-68175000D03*
X218550000Y-69675000D03*
X218550000Y-68175000D03*
X220175000Y-69675000D03*
X220175000Y-68175000D03*
D21*
X223130000Y-86650000D03*
X220930000Y-86650000D03*
X206460000Y-86650000D03*
X208660000Y-86650000D03*
D27*
X210575000Y-86250000D03*
X211825000Y-86250000D03*
X213075000Y-86250000D03*
X219025000Y-86250000D03*
X217775000Y-86250000D03*
X216525000Y-86250000D03*
D12*
X151300000Y-76950000D03*
X151300000Y-75950000D03*
X153300000Y-75950000D03*
X153300000Y-76950000D03*
X176300000Y-76950000D03*
X176300000Y-75950000D03*
X178300000Y-76950000D03*
X178300000Y-75950000D03*
X201300000Y-76950000D03*
X201300000Y-75950000D03*
X203300000Y-75950000D03*
X203300000Y-76950000D03*
X203300000Y-102550000D03*
X203300000Y-103550000D03*
X201300000Y-103550000D03*
X201300000Y-102550000D03*
X178300000Y-103550000D03*
X178300000Y-102550000D03*
X176300000Y-103550000D03*
X176300000Y-102550000D03*
X153300000Y-102550000D03*
X153300000Y-103550000D03*
X151300000Y-103550000D03*
X151300000Y-102550000D03*
D13*
X213405000Y-103830000D03*
X214675000Y-103830000D03*
X215945000Y-103830000D03*
X217215000Y-103830000D03*
X217215000Y-96530000D03*
X215945000Y-96530000D03*
X214675000Y-96530000D03*
X213405000Y-96530000D03*
D14*
X207325000Y-97450000D03*
X207325000Y-98950000D03*
X207325000Y-101950000D03*
X207325000Y-100450000D03*
X205325000Y-96700000D03*
X205325000Y-102700000D03*
X205325000Y-101200000D03*
X205325000Y-98200000D03*
X205325000Y-99700000D03*
X220125000Y-101975000D03*
X220125000Y-100475000D03*
X220125000Y-97475000D03*
X220125000Y-98975000D03*
X222125000Y-102725000D03*
X222125000Y-96725000D03*
X222125000Y-98225000D03*
X222125000Y-99725000D03*
D15*
X211590000Y-103510000D03*
X210640000Y-103510000D03*
X209690000Y-103510000D03*
X209690000Y-105710000D03*
X211590000Y-105710000D03*
X210640000Y-105710000D03*
D16*
X213460000Y-106920000D03*
X213460000Y-105420000D03*
D17*
X207850000Y-95050000D03*
X206350000Y-95050000D03*
D16*
X219100000Y-94500000D03*
X219100000Y-93000000D03*
X210500000Y-94400000D03*
X210500000Y-92900000D03*
X215540000Y-106960000D03*
X215540000Y-105460000D03*
D18*
X211370000Y-98450000D03*
X209870000Y-98450000D03*
X211370000Y-97070000D03*
X209870000Y-97070000D03*
X209860000Y-100290000D03*
X211360000Y-100290000D03*
X209860000Y-101670000D03*
X211360000Y-101670000D03*
D19*
X219800000Y-109000000D03*
D20*
X218550000Y-109000000D03*
X217300000Y-109000000D03*
X216050000Y-109000000D03*
X214800000Y-109000000D03*
X213550000Y-109000000D03*
X212300000Y-109000000D03*
X211050000Y-109000000D03*
X209800000Y-109000000D03*
D21*
X206460000Y-92850000D03*
X208660000Y-92850000D03*
X223130000Y-92850000D03*
X220930000Y-92850000D03*
D22*
X207000000Y-106050000D03*
X222600000Y-106050000D03*
D23*
X206425000Y-92075000D03*
X208700000Y-92075000D03*
X220900000Y-92075000D03*
X223150000Y-92075000D03*
D12*
X213950000Y-92840000D03*
D24*
X216475000Y-94390000D03*
X213125000Y-94390000D03*
D25*
X212500000Y-92840000D03*
X217100000Y-92840000D03*
D12*
X215650000Y-92840000D03*
D16*
X216990000Y-106960000D03*
X216990000Y-105460000D03*
D26*
X222880000Y-94930000D03*
X224980000Y-94930000D03*
X197880000Y-94930000D03*
X199980000Y-94930000D03*
D16*
X191990000Y-106960000D03*
X191990000Y-105460000D03*
D12*
X188950000Y-92840000D03*
D24*
X191475000Y-94390000D03*
X188125000Y-94390000D03*
D25*
X187500000Y-92840000D03*
X192100000Y-92840000D03*
D12*
X190650000Y-92840000D03*
D23*
X198150000Y-92075000D03*
X195900000Y-92075000D03*
X183700000Y-92075000D03*
X181425000Y-92075000D03*
D22*
X197600000Y-106050000D03*
X182000000Y-106050000D03*
D21*
X198130000Y-92850000D03*
X195930000Y-92850000D03*
X181460000Y-92850000D03*
X183660000Y-92850000D03*
D19*
X194800000Y-109000000D03*
D20*
X193550000Y-109000000D03*
X192300000Y-109000000D03*
X191050000Y-109000000D03*
X189800000Y-109000000D03*
X188550000Y-109000000D03*
X187300000Y-109000000D03*
X186050000Y-109000000D03*
X184800000Y-109000000D03*
D18*
X184860000Y-101670000D03*
X186360000Y-101670000D03*
X184860000Y-100290000D03*
X186360000Y-100290000D03*
X186370000Y-97070000D03*
X184870000Y-97070000D03*
X186370000Y-98450000D03*
X184870000Y-98450000D03*
D16*
X190540000Y-106960000D03*
X190540000Y-105460000D03*
X185500000Y-94400000D03*
X185500000Y-92900000D03*
X194100000Y-94500000D03*
X194100000Y-93000000D03*
D17*
X182850000Y-95050000D03*
X181350000Y-95050000D03*
D16*
X188460000Y-106920000D03*
X188460000Y-105420000D03*
D15*
X186590000Y-103510000D03*
X185640000Y-103510000D03*
X184690000Y-103510000D03*
X184690000Y-105710000D03*
X186590000Y-105710000D03*
X185640000Y-105710000D03*
D14*
X195125000Y-101975000D03*
X195125000Y-100475000D03*
X195125000Y-97475000D03*
X195125000Y-98975000D03*
X197125000Y-102725000D03*
X197125000Y-96725000D03*
X197125000Y-98225000D03*
X197125000Y-99725000D03*
X182325000Y-97450000D03*
X182325000Y-98950000D03*
X182325000Y-101950000D03*
X182325000Y-100450000D03*
X180325000Y-96700000D03*
X180325000Y-102700000D03*
X180325000Y-101200000D03*
X180325000Y-98200000D03*
X180325000Y-99700000D03*
D13*
X188405000Y-103830000D03*
X189675000Y-103830000D03*
X190945000Y-103830000D03*
X192215000Y-103830000D03*
X192215000Y-96530000D03*
X190945000Y-96530000D03*
X189675000Y-96530000D03*
X188405000Y-96530000D03*
X163405000Y-103830000D03*
X164675000Y-103830000D03*
X165945000Y-103830000D03*
X167215000Y-103830000D03*
X167215000Y-96530000D03*
X165945000Y-96530000D03*
X164675000Y-96530000D03*
X163405000Y-96530000D03*
D14*
X157325000Y-97450000D03*
X157325000Y-98950000D03*
X157325000Y-101950000D03*
X157325000Y-100450000D03*
X155325000Y-96700000D03*
X155325000Y-102700000D03*
X155325000Y-101200000D03*
X155325000Y-98200000D03*
X155325000Y-99700000D03*
X170125000Y-101975000D03*
X170125000Y-100475000D03*
X170125000Y-97475000D03*
X170125000Y-98975000D03*
X172125000Y-102725000D03*
X172125000Y-96725000D03*
X172125000Y-98225000D03*
X172125000Y-99725000D03*
D15*
X161590000Y-103510000D03*
X160640000Y-103510000D03*
X159690000Y-103510000D03*
X159690000Y-105710000D03*
X161590000Y-105710000D03*
X160640000Y-105710000D03*
D16*
X163460000Y-106920000D03*
X163460000Y-105420000D03*
D17*
X157850000Y-95050000D03*
X156350000Y-95050000D03*
D16*
X169100000Y-94500000D03*
X169100000Y-93000000D03*
X160500000Y-94400000D03*
X160500000Y-92900000D03*
X165540000Y-106960000D03*
X165540000Y-105460000D03*
D18*
X161370000Y-98450000D03*
X159870000Y-98450000D03*
X161370000Y-97070000D03*
X159870000Y-97070000D03*
X159860000Y-100290000D03*
X161360000Y-100290000D03*
X159860000Y-101670000D03*
X161360000Y-101670000D03*
D19*
X169800000Y-109000000D03*
D20*
X168550000Y-109000000D03*
X167300000Y-109000000D03*
X166050000Y-109000000D03*
X164800000Y-109000000D03*
X163550000Y-109000000D03*
X162300000Y-109000000D03*
X161050000Y-109000000D03*
X159800000Y-109000000D03*
D21*
X156460000Y-92850000D03*
X158660000Y-92850000D03*
X173130000Y-92850000D03*
X170930000Y-92850000D03*
D22*
X157000000Y-106050000D03*
X172600000Y-106050000D03*
D23*
X156425000Y-92075000D03*
X158700000Y-92075000D03*
X170900000Y-92075000D03*
X173150000Y-92075000D03*
D12*
X163950000Y-92840000D03*
D24*
X166475000Y-94390000D03*
X163125000Y-94390000D03*
D25*
X162500000Y-92840000D03*
X167100000Y-92840000D03*
D12*
X165650000Y-92840000D03*
D16*
X166990000Y-106960000D03*
X166990000Y-105460000D03*
D26*
X172880000Y-94930000D03*
X174980000Y-94930000D03*
X147880000Y-94930000D03*
X149980000Y-94930000D03*
D16*
X141990000Y-106960000D03*
X141990000Y-105460000D03*
D12*
X138950000Y-92840000D03*
D24*
X141475000Y-94390000D03*
X138125000Y-94390000D03*
D25*
X137500000Y-92840000D03*
X142100000Y-92840000D03*
D12*
X140650000Y-92840000D03*
D23*
X148150000Y-92075000D03*
X145900000Y-92075000D03*
X133700000Y-92075000D03*
X131425000Y-92075000D03*
D22*
X147600000Y-106050000D03*
X132000000Y-106050000D03*
D21*
X148130000Y-92850000D03*
X145930000Y-92850000D03*
X131460000Y-92850000D03*
X133660000Y-92850000D03*
D19*
X144800000Y-109000000D03*
D20*
X143550000Y-109000000D03*
X142300000Y-109000000D03*
X141050000Y-109000000D03*
X139800000Y-109000000D03*
X138550000Y-109000000D03*
X137300000Y-109000000D03*
X136050000Y-109000000D03*
X134800000Y-109000000D03*
D18*
X134860000Y-101670000D03*
X136360000Y-101670000D03*
X134860000Y-100290000D03*
X136360000Y-100290000D03*
X136370000Y-97070000D03*
X134870000Y-97070000D03*
X136370000Y-98450000D03*
X134870000Y-98450000D03*
D16*
X140540000Y-106960000D03*
X140540000Y-105460000D03*
X135500000Y-94400000D03*
X135500000Y-92900000D03*
X144100000Y-94500000D03*
X144100000Y-93000000D03*
D17*
X132850000Y-95050000D03*
X131350000Y-95050000D03*
D16*
X138460000Y-106920000D03*
X138460000Y-105420000D03*
D15*
X136590000Y-103510000D03*
X135640000Y-103510000D03*
X134690000Y-103510000D03*
X134690000Y-105710000D03*
X136590000Y-105710000D03*
X135640000Y-105710000D03*
D14*
X145125000Y-101975000D03*
X145125000Y-100475000D03*
X145125000Y-97475000D03*
X145125000Y-98975000D03*
X147125000Y-102725000D03*
X147125000Y-96725000D03*
X147125000Y-98225000D03*
X147125000Y-99725000D03*
X132325000Y-97450000D03*
X132325000Y-98950000D03*
X132325000Y-101950000D03*
X132325000Y-100450000D03*
X130325000Y-96700000D03*
X130325000Y-102700000D03*
X130325000Y-101200000D03*
X130325000Y-98200000D03*
X130325000Y-99700000D03*
D13*
X138405000Y-103830000D03*
X139675000Y-103830000D03*
X140945000Y-103830000D03*
X142215000Y-103830000D03*
X142215000Y-96530000D03*
X140945000Y-96530000D03*
X139675000Y-96530000D03*
X138405000Y-96530000D03*
M02*
