M48
;DRILL file {KiCad 4.0.7} date 06/19/18 18:29:09
;FORMAT={-:-/ absolute / metric / decimal}
FMAT,2
METRIC,TZ
T1C0.300
T2C0.400
T3C0.500
T4C0.700
%
G90
G05
M71
T1
X130.325Y-28.8
X130.325Y-30.3
X130.325Y-33.3
X130.325Y-50.2
X130.325Y-53.2
X130.325Y-54.7
X130.325Y-76.8
X130.325Y-78.3
X130.325Y-81.3
X130.325Y-98.2
X130.325Y-101.2
X130.325Y-102.7
X131.15Y-35.75
X131.15Y-47.75
X131.15Y-83.75
X131.15Y-95.75
X132.3Y-29.2
X132.3Y-54.3
X132.3Y-77.2
X132.3Y-102.3
X132.325Y-32.55
X132.325Y-34.05
X132.325Y-49.45
X132.325Y-50.95
X132.325Y-80.55
X132.325Y-82.05
X132.325Y-97.45
X132.325Y-98.95
X132.85Y-35.61
X132.85Y-47.89
X132.85Y-83.61
X132.85Y-95.89
X133.66Y-38.65
X133.66Y-44.85
X133.66Y-86.65
X133.66Y-92.85
X135.14Y-24.65
X135.14Y-58.85
X135.14Y-72.65
X135.14Y-106.85
X135.5Y-36.52
X135.5Y-46.98
X135.5Y-84.52
X135.5Y-94.98
X136.56Y-24.69
X136.56Y-58.81
X136.56Y-72.69
X136.56Y-106.81
X137.5Y-29.18
X137.5Y-54.32
X137.5Y-77.18
X137.5Y-102.32
X138.1Y-36.95
X138.1Y-46.55
X138.1Y-84.95
X138.1Y-94.55
X138.5Y-31.45
X138.5Y-33.25
X138.5Y-50.25
X138.5Y-52.05
X138.5Y-79.45
X138.5Y-81.25
X138.5Y-98.25
X138.5Y-100.05
X139.7Y-36.45
X139.7Y-47.05
X139.7Y-84.45
X139.7Y-95.05
X140.9Y-33.65
X140.9Y-49.85
X140.9Y-81.65
X140.9Y-97.85
X142.2Y-34.9
X142.2Y-48.6
X142.2Y-82.9
X142.2Y-96.6
X143.55Y-20.57
X143.55Y-62.93
X143.55Y-68.57
X143.55Y-110.93
X144.09Y-36.43
X144.09Y-47.07
X144.09Y-84.43
X144.09Y-95.07
X145.12Y-29.53
X145.12Y-53.97
X145.12Y-77.53
X145.12Y-101.97
X145.125Y-31.025
X145.125Y-34.025
X145.125Y-49.475
X145.125Y-52.475
X145.125Y-79.025
X145.125Y-82.025
X145.125Y-97.475
X145.125Y-100.475
X145.17Y-20.26
X145.17Y-63.24
X145.17Y-68.26
X145.17Y-111.24
X145.3Y-37.35
X145.3Y-46.15
X145.3Y-85.35
X145.3Y-94.15
X145.93Y-38.65
X145.93Y-44.85
X145.93Y-86.65
X145.93Y-92.85
X147.125Y-34.775
X147.125Y-48.725
X147.125Y-82.775
X147.125Y-96.725
X147.15Y-33.275
X147.15Y-50.225
X147.15Y-81.275
X147.15Y-98.225
X148.8Y-29.1
X148.8Y-54.4
X148.8Y-77.1
X148.8Y-102.4
X149.6Y-29.8
X149.6Y-53.7
X149.6Y-77.8
X149.6Y-101.7
X155.325Y-28.8
X155.325Y-30.3
X155.325Y-33.3
X155.325Y-50.2
X155.325Y-53.2
X155.325Y-54.7
X155.325Y-76.8
X155.325Y-78.3
X155.325Y-81.3
X155.325Y-98.2
X155.325Y-101.2
X155.325Y-102.7
X156.15Y-35.75
X156.15Y-47.75
X156.15Y-83.75
X156.15Y-95.75
X157.3Y-29.2
X157.3Y-54.3
X157.3Y-77.2
X157.3Y-102.3
X157.325Y-32.55
X157.325Y-34.05
X157.325Y-49.45
X157.325Y-50.95
X157.325Y-80.55
X157.325Y-82.05
X157.325Y-97.45
X157.325Y-98.95
X157.85Y-35.61
X157.85Y-47.89
X157.85Y-83.61
X157.85Y-95.89
X158.66Y-38.65
X158.66Y-44.85
X158.66Y-86.65
X158.66Y-92.85
X160.14Y-24.65
X160.14Y-58.85
X160.14Y-72.65
X160.14Y-106.85
X160.5Y-36.52
X160.5Y-46.98
X160.5Y-84.52
X160.5Y-94.98
X161.56Y-24.69
X161.56Y-58.81
X161.56Y-72.69
X161.56Y-106.81
X162.5Y-29.18
X162.5Y-54.32
X162.5Y-77.18
X162.5Y-102.32
X163.1Y-36.95
X163.1Y-46.55
X163.1Y-84.95
X163.1Y-94.55
X163.5Y-31.45
X163.5Y-33.25
X163.5Y-50.25
X163.5Y-52.05
X163.5Y-79.45
X163.5Y-81.25
X163.5Y-98.25
X163.5Y-100.05
X164.7Y-36.45
X164.7Y-47.05
X164.7Y-84.45
X164.7Y-95.05
X165.9Y-33.65
X165.9Y-49.85
X165.9Y-81.65
X165.9Y-97.85
X167.2Y-34.9
X167.2Y-48.6
X167.2Y-82.9
X167.2Y-96.6
X168.55Y-20.57
X168.55Y-62.93
X168.55Y-68.57
X168.55Y-110.93
X169.09Y-36.43
X169.09Y-47.07
X169.09Y-84.43
X169.09Y-95.07
X170.12Y-29.53
X170.12Y-53.97
X170.12Y-77.53
X170.12Y-101.97
X170.125Y-31.025
X170.125Y-34.025
X170.125Y-49.475
X170.125Y-52.475
X170.125Y-79.025
X170.125Y-82.025
X170.125Y-97.475
X170.125Y-100.475
X170.17Y-20.26
X170.17Y-63.24
X170.17Y-68.26
X170.17Y-111.24
X170.3Y-37.35
X170.3Y-46.15
X170.3Y-85.35
X170.3Y-94.15
X170.93Y-38.65
X170.93Y-44.85
X170.93Y-86.65
X170.93Y-92.85
X172.125Y-34.775
X172.125Y-48.725
X172.125Y-82.775
X172.125Y-96.725
X172.15Y-33.275
X172.15Y-50.225
X172.15Y-81.275
X172.15Y-98.225
X173.8Y-29.1
X173.8Y-54.4
X173.8Y-77.1
X173.8Y-102.4
X174.6Y-29.8
X174.6Y-53.7
X174.6Y-77.8
X174.6Y-101.7
X180.325Y-28.8
X180.325Y-30.3
X180.325Y-33.3
X180.325Y-50.2
X180.325Y-53.2
X180.325Y-54.7
X180.325Y-76.8
X180.325Y-78.3
X180.325Y-81.3
X180.325Y-98.2
X180.325Y-101.2
X180.325Y-102.7
X181.15Y-35.75
X181.15Y-47.75
X181.15Y-83.75
X181.15Y-95.75
X182.3Y-29.2
X182.3Y-54.3
X182.3Y-77.2
X182.3Y-102.3
X182.325Y-32.55
X182.325Y-34.05
X182.325Y-49.45
X182.325Y-50.95
X182.325Y-80.55
X182.325Y-82.05
X182.325Y-97.45
X182.325Y-98.95
X182.85Y-35.61
X182.85Y-47.89
X182.85Y-83.61
X182.85Y-95.89
X183.66Y-38.65
X183.66Y-44.85
X183.66Y-86.65
X183.66Y-92.85
X185.14Y-24.65
X185.14Y-58.85
X185.14Y-72.65
X185.14Y-106.85
X185.5Y-36.52
X185.5Y-46.98
X185.5Y-84.52
X185.5Y-94.98
X186.56Y-24.69
X186.56Y-58.81
X186.56Y-72.69
X186.56Y-106.81
X187.5Y-29.18
X187.5Y-54.32
X187.5Y-77.18
X187.5Y-102.32
X188.1Y-36.95
X188.1Y-46.55
X188.1Y-84.95
X188.1Y-94.55
X188.5Y-31.45
X188.5Y-33.25
X188.5Y-50.25
X188.5Y-52.05
X188.5Y-79.45
X188.5Y-81.25
X188.5Y-98.25
X188.5Y-100.05
X189.7Y-36.45
X189.7Y-47.05
X189.7Y-84.45
X189.7Y-95.05
X190.9Y-33.65
X190.9Y-49.85
X190.9Y-81.65
X190.9Y-97.85
X192.2Y-34.9
X192.2Y-48.6
X192.2Y-82.9
X192.2Y-96.6
X193.55Y-20.57
X193.55Y-62.93
X193.55Y-68.57
X193.55Y-110.93
X194.09Y-36.43
X194.09Y-47.07
X194.09Y-84.43
X194.09Y-95.07
X195.12Y-29.53
X195.12Y-53.97
X195.12Y-77.53
X195.12Y-101.97
X195.125Y-31.025
X195.125Y-34.025
X195.125Y-49.475
X195.125Y-52.475
X195.125Y-79.025
X195.125Y-82.025
X195.125Y-97.475
X195.125Y-100.475
X195.17Y-20.26
X195.17Y-63.24
X195.17Y-68.26
X195.17Y-111.24
X195.3Y-37.35
X195.3Y-46.15
X195.3Y-85.35
X195.3Y-94.15
X195.93Y-38.65
X195.93Y-44.85
X195.93Y-86.65
X195.93Y-92.85
X197.125Y-34.775
X197.125Y-48.725
X197.125Y-82.775
X197.125Y-96.725
X197.15Y-33.275
X197.15Y-50.225
X197.15Y-81.275
X197.15Y-98.225
X198.8Y-29.1
X198.8Y-54.4
X198.8Y-77.1
X198.8Y-102.4
X199.6Y-29.8
X199.6Y-53.7
X199.6Y-77.8
X199.6Y-101.7
X205.325Y-28.8
X205.325Y-30.3
X205.325Y-33.3
X205.325Y-50.2
X205.325Y-53.2
X205.325Y-54.7
X205.325Y-76.8
X205.325Y-78.3
X205.325Y-81.3
X205.325Y-98.2
X205.325Y-101.2
X205.325Y-102.7
X206.15Y-35.75
X206.15Y-47.75
X206.15Y-83.75
X206.15Y-95.75
X207.3Y-29.2
X207.3Y-54.3
X207.3Y-77.2
X207.3Y-102.3
X207.325Y-32.55
X207.325Y-34.05
X207.325Y-49.45
X207.325Y-50.95
X207.325Y-80.55
X207.325Y-82.05
X207.325Y-97.45
X207.325Y-98.95
X207.85Y-35.61
X207.85Y-47.89
X207.85Y-83.61
X207.85Y-95.89
X208.66Y-38.65
X208.66Y-44.85
X208.66Y-86.65
X208.66Y-92.85
X210.14Y-24.65
X210.14Y-58.85
X210.14Y-72.65
X210.14Y-106.85
X210.5Y-36.52
X210.5Y-46.98
X210.5Y-84.52
X210.5Y-94.98
X211.56Y-24.69
X211.56Y-58.81
X211.56Y-72.69
X211.56Y-106.81
X212.5Y-29.18
X212.5Y-54.32
X212.5Y-77.18
X212.5Y-102.32
X213.1Y-36.95
X213.1Y-46.55
X213.1Y-84.95
X213.1Y-94.55
X213.5Y-31.45
X213.5Y-33.25
X213.5Y-50.25
X213.5Y-52.05
X213.5Y-79.45
X213.5Y-81.25
X213.5Y-98.25
X213.5Y-100.05
X214.7Y-36.45
X214.7Y-47.05
X214.7Y-84.45
X214.7Y-95.05
X215.9Y-33.65
X215.9Y-49.85
X215.9Y-81.65
X215.9Y-97.85
X217.2Y-34.9
X217.2Y-48.6
X217.2Y-82.9
X217.2Y-96.6
X218.55Y-20.57
X218.55Y-62.93
X218.55Y-68.57
X218.55Y-110.93
X219.09Y-36.43
X219.09Y-47.07
X219.09Y-84.43
X219.09Y-95.07
X220.12Y-29.53
X220.12Y-53.97
X220.12Y-77.53
X220.12Y-101.97
X220.125Y-31.025
X220.125Y-34.025
X220.125Y-49.475
X220.125Y-52.475
X220.125Y-79.025
X220.125Y-82.025
X220.125Y-97.475
X220.125Y-100.475
X220.17Y-20.26
X220.17Y-63.24
X220.17Y-68.26
X220.17Y-111.24
X220.3Y-37.35
X220.3Y-46.15
X220.3Y-85.35
X220.3Y-94.15
X220.93Y-38.65
X220.93Y-44.85
X220.93Y-86.65
X220.93Y-92.85
X222.125Y-34.775
X222.125Y-48.725
X222.125Y-82.775
X222.125Y-96.725
X222.15Y-33.275
X222.15Y-50.225
X222.15Y-81.275
X222.15Y-98.225
X223.8Y-29.1
X223.8Y-54.4
X223.8Y-77.1
X223.8Y-102.4
X224.6Y-29.8
X224.6Y-53.7
X224.6Y-77.8
X224.6Y-101.7
T2
X130.16Y-38.64
X130.16Y-44.86
X130.16Y-86.64
X130.16Y-92.86
X130.325Y-31.8
X130.325Y-34.8
X130.325Y-48.7
X130.325Y-51.7
X130.325Y-79.8
X130.325Y-82.8
X130.325Y-96.7
X130.325Y-99.7
X132.325Y-31.05
X132.325Y-52.45
X132.325Y-79.05
X132.325Y-100.45
X133.9Y-29.05
X133.9Y-33.2
X133.9Y-50.3
X133.9Y-54.45
X133.9Y-77.05
X133.9Y-81.2
X133.9Y-98.3
X133.9Y-102.45
X136.8Y-36.77
X136.8Y-46.73
X136.8Y-84.77
X136.8Y-94.73
X136.875Y-32.925
X136.875Y-50.575
X136.875Y-80.925
X136.875Y-98.575
X137.44Y-30.42
X137.44Y-53.08
X137.44Y-78.42
X137.44Y-101.08
X137.64Y-26.07
X137.64Y-57.43
X137.64Y-74.07
X137.64Y-105.43
X139.8Y-37.65
X139.8Y-45.85
X139.8Y-85.65
X139.8Y-93.85
X143.33Y-33.16
X143.33Y-50.34
X143.33Y-81.16
X143.33Y-98.34
X143.95Y-28.45
X143.95Y-55.05
X143.95Y-76.45
X143.95Y-103.05
X145.14Y-27.33
X145.14Y-56.17
X145.14Y-75.33
X145.14Y-104.17
X145.15Y-32.525
X145.15Y-50.975
X145.15Y-80.525
X145.15Y-98.975
X146.95Y-36.42
X146.95Y-47.08
X146.95Y-84.42
X146.95Y-95.08
X147.125Y-28.775
X147.125Y-31.775
X147.125Y-51.725
X147.125Y-54.725
X147.125Y-76.775
X147.125Y-79.775
X147.125Y-99.725
X147.125Y-102.725
X149.4Y-38.65
X149.4Y-44.85
X149.4Y-86.65
X149.4Y-92.85
X155.16Y-38.64
X155.16Y-44.86
X155.16Y-86.64
X155.16Y-92.86
X155.325Y-31.8
X155.325Y-34.8
X155.325Y-48.7
X155.325Y-51.7
X155.325Y-79.8
X155.325Y-82.8
X155.325Y-96.7
X155.325Y-99.7
X157.325Y-31.05
X157.325Y-52.45
X157.325Y-79.05
X157.325Y-100.45
X158.9Y-29.05
X158.9Y-33.2
X158.9Y-50.3
X158.9Y-54.45
X158.9Y-77.05
X158.9Y-81.2
X158.9Y-98.3
X158.9Y-102.45
X161.8Y-36.77
X161.8Y-46.73
X161.8Y-84.77
X161.8Y-94.73
X161.875Y-32.925
X161.875Y-50.575
X161.875Y-80.925
X161.875Y-98.575
X162.44Y-30.42
X162.44Y-53.08
X162.44Y-78.42
X162.44Y-101.08
X162.64Y-26.07
X162.64Y-57.43
X162.64Y-74.07
X162.64Y-105.43
X164.8Y-37.65
X164.8Y-45.85
X164.8Y-85.65
X164.8Y-93.85
X168.33Y-33.16
X168.33Y-50.34
X168.33Y-81.16
X168.33Y-98.34
X168.95Y-28.45
X168.95Y-55.05
X168.95Y-76.45
X168.95Y-103.05
X170.14Y-27.33
X170.14Y-56.17
X170.14Y-75.33
X170.14Y-104.17
X170.15Y-32.525
X170.15Y-50.975
X170.15Y-80.525
X170.15Y-98.975
X171.95Y-36.42
X171.95Y-47.08
X171.95Y-84.42
X171.95Y-95.08
X172.125Y-28.775
X172.125Y-31.775
X172.125Y-51.725
X172.125Y-54.725
X172.125Y-76.775
X172.125Y-79.775
X172.125Y-99.725
X172.125Y-102.725
X174.4Y-38.65
X174.4Y-44.85
X174.4Y-86.65
X174.4Y-92.85
X180.16Y-38.64
X180.16Y-44.86
X180.16Y-86.64
X180.16Y-92.86
X180.325Y-31.8
X180.325Y-34.8
X180.325Y-48.7
X180.325Y-51.7
X180.325Y-79.8
X180.325Y-82.8
X180.325Y-96.7
X180.325Y-99.7
X182.325Y-31.05
X182.325Y-52.45
X182.325Y-79.05
X182.325Y-100.45
X183.9Y-29.05
X183.9Y-33.2
X183.9Y-50.3
X183.9Y-54.45
X183.9Y-77.05
X183.9Y-81.2
X183.9Y-98.3
X183.9Y-102.45
X186.8Y-36.77
X186.8Y-46.73
X186.8Y-84.77
X186.8Y-94.73
X186.875Y-32.925
X186.875Y-50.575
X186.875Y-80.925
X186.875Y-98.575
X187.44Y-30.42
X187.44Y-53.08
X187.44Y-78.42
X187.44Y-101.08
X187.64Y-26.07
X187.64Y-57.43
X187.64Y-74.07
X187.64Y-105.43
X189.8Y-37.65
X189.8Y-45.85
X189.8Y-85.65
X189.8Y-93.85
X193.33Y-33.16
X193.33Y-50.34
X193.33Y-81.16
X193.33Y-98.34
X193.95Y-28.45
X193.95Y-55.05
X193.95Y-76.45
X193.95Y-103.05
X195.14Y-27.33
X195.14Y-56.17
X195.14Y-75.33
X195.14Y-104.17
X195.15Y-32.525
X195.15Y-50.975
X195.15Y-80.525
X195.15Y-98.975
X196.95Y-36.42
X196.95Y-47.08
X196.95Y-84.42
X196.95Y-95.08
X197.125Y-28.775
X197.125Y-31.775
X197.125Y-51.725
X197.125Y-54.725
X197.125Y-76.775
X197.125Y-79.775
X197.125Y-99.725
X197.125Y-102.725
X199.4Y-38.65
X199.4Y-44.85
X199.4Y-86.65
X199.4Y-92.85
X205.16Y-38.64
X205.16Y-44.86
X205.16Y-86.64
X205.16Y-92.86
X205.325Y-31.8
X205.325Y-34.8
X205.325Y-48.7
X205.325Y-51.7
X205.325Y-79.8
X205.325Y-82.8
X205.325Y-96.7
X205.325Y-99.7
X207.325Y-31.05
X207.325Y-52.45
X207.325Y-79.05
X207.325Y-100.45
X208.9Y-29.05
X208.9Y-33.2
X208.9Y-50.3
X208.9Y-54.45
X208.9Y-77.05
X208.9Y-81.2
X208.9Y-98.3
X208.9Y-102.45
X211.8Y-36.77
X211.8Y-46.73
X211.8Y-84.77
X211.8Y-94.73
X211.875Y-32.925
X211.875Y-50.575
X211.875Y-80.925
X211.875Y-98.575
X212.44Y-30.42
X212.44Y-53.08
X212.44Y-78.42
X212.44Y-101.08
X212.64Y-26.07
X212.64Y-57.43
X212.64Y-74.07
X212.64Y-105.43
X214.8Y-37.65
X214.8Y-45.85
X214.8Y-85.65
X214.8Y-93.85
X218.33Y-33.16
X218.33Y-50.34
X218.33Y-81.16
X218.33Y-98.34
X218.95Y-28.45
X218.95Y-55.05
X218.95Y-76.45
X218.95Y-103.05
X220.14Y-27.33
X220.14Y-56.17
X220.14Y-75.33
X220.14Y-104.17
X220.15Y-32.525
X220.15Y-50.975
X220.15Y-80.525
X220.15Y-98.975
X221.95Y-36.42
X221.95Y-47.08
X221.95Y-84.42
X221.95Y-95.08
X222.125Y-28.775
X222.125Y-31.775
X222.125Y-51.725
X222.125Y-54.725
X222.125Y-76.775
X222.125Y-79.775
X222.125Y-99.725
X222.125Y-102.725
X224.4Y-38.65
X224.4Y-44.85
X224.4Y-86.65
X224.4Y-92.85
T3
X134.8Y-22.5
X134.8Y-61.
X134.8Y-70.5
X134.8Y-109.
X136.05Y-22.5
X136.05Y-61.
X136.05Y-70.5
X136.05Y-109.
X137.3Y-22.5
X137.3Y-61.
X137.3Y-70.5
X137.3Y-109.
X138.55Y-22.5
X138.55Y-61.
X138.55Y-70.5
X138.55Y-109.
X139.8Y-22.5
X139.8Y-61.
X139.8Y-70.5
X139.8Y-109.
X141.05Y-22.5
X141.05Y-61.
X141.05Y-70.5
X141.05Y-109.
X142.3Y-22.5
X142.3Y-61.
X142.3Y-70.5
X142.3Y-109.
X143.55Y-22.5
X143.55Y-61.
X143.55Y-70.5
X143.55Y-109.
X144.8Y-22.5
X144.8Y-61.
X144.8Y-70.5
X144.8Y-109.
X159.8Y-22.5
X159.8Y-61.
X159.8Y-70.5
X159.8Y-109.
X161.05Y-22.5
X161.05Y-61.
X161.05Y-70.5
X161.05Y-109.
X162.3Y-22.5
X162.3Y-61.
X162.3Y-70.5
X162.3Y-109.
X163.55Y-22.5
X163.55Y-61.
X163.55Y-70.5
X163.55Y-109.
X164.8Y-22.5
X164.8Y-61.
X164.8Y-70.5
X164.8Y-109.
X166.05Y-22.5
X166.05Y-61.
X166.05Y-70.5
X166.05Y-109.
X167.3Y-22.5
X167.3Y-61.
X167.3Y-70.5
X167.3Y-109.
X168.55Y-22.5
X168.55Y-61.
X168.55Y-70.5
X168.55Y-109.
X169.8Y-22.5
X169.8Y-61.
X169.8Y-70.5
X169.8Y-109.
X184.8Y-22.5
X184.8Y-61.
X184.8Y-70.5
X184.8Y-109.
X186.05Y-22.5
X186.05Y-61.
X186.05Y-70.5
X186.05Y-109.
X187.3Y-22.5
X187.3Y-61.
X187.3Y-70.5
X187.3Y-109.
X188.55Y-22.5
X188.55Y-61.
X188.55Y-70.5
X188.55Y-109.
X189.8Y-22.5
X189.8Y-61.
X189.8Y-70.5
X189.8Y-109.
X191.05Y-22.5
X191.05Y-61.
X191.05Y-70.5
X191.05Y-109.
X192.3Y-22.5
X192.3Y-61.
X192.3Y-70.5
X192.3Y-109.
X193.55Y-22.5
X193.55Y-61.
X193.55Y-70.5
X193.55Y-109.
X194.8Y-22.5
X194.8Y-61.
X194.8Y-70.5
X194.8Y-109.
X209.8Y-22.5
X209.8Y-61.
X209.8Y-70.5
X209.8Y-109.
X211.05Y-22.5
X211.05Y-61.
X211.05Y-70.5
X211.05Y-109.
X212.3Y-22.5
X212.3Y-61.
X212.3Y-70.5
X212.3Y-109.
X213.55Y-22.5
X213.55Y-61.
X213.55Y-70.5
X213.55Y-109.
X214.8Y-22.5
X214.8Y-61.
X214.8Y-70.5
X214.8Y-109.
X216.05Y-22.5
X216.05Y-61.
X216.05Y-70.5
X216.05Y-109.
X217.3Y-22.5
X217.3Y-61.
X217.3Y-70.5
X217.3Y-109.
X218.55Y-22.5
X218.55Y-61.
X218.55Y-70.5
X218.55Y-109.
X219.8Y-22.5
X219.8Y-61.
X219.8Y-70.5
X219.8Y-109.
T4
X131.425Y-39.425
X131.425Y-44.075
X131.425Y-87.425
X131.425Y-92.075
X133.7Y-39.425
X133.7Y-44.075
X133.7Y-87.425
X133.7Y-92.075
X145.9Y-39.425
X145.9Y-44.075
X145.9Y-87.425
X145.9Y-92.075
X148.15Y-39.425
X148.15Y-44.075
X148.15Y-87.425
X148.15Y-92.075
X156.425Y-39.425
X156.425Y-44.075
X156.425Y-87.425
X156.425Y-92.075
X158.7Y-39.425
X158.7Y-44.075
X158.7Y-87.425
X158.7Y-92.075
X170.9Y-39.425
X170.9Y-44.075
X170.9Y-87.425
X170.9Y-92.075
X173.15Y-39.425
X173.15Y-44.075
X173.15Y-87.425
X173.15Y-92.075
X181.425Y-39.425
X181.425Y-44.075
X181.425Y-87.425
X181.425Y-92.075
X183.7Y-39.425
X183.7Y-44.075
X183.7Y-87.425
X183.7Y-92.075
X195.9Y-39.425
X195.9Y-44.075
X195.9Y-87.425
X195.9Y-92.075
X198.15Y-39.425
X198.15Y-44.075
X198.15Y-87.425
X198.15Y-92.075
X206.425Y-39.425
X206.425Y-44.075
X206.425Y-87.425
X206.425Y-92.075
X208.7Y-39.425
X208.7Y-44.075
X208.7Y-87.425
X208.7Y-92.075
X220.9Y-39.425
X220.9Y-44.075
X220.9Y-87.425
X220.9Y-92.075
X223.15Y-39.425
X223.15Y-44.075
X223.15Y-87.425
X223.15Y-92.075
T0
M30
