%TF.GenerationSoftware,KiCad,Pcbnew,4.0.7*%
%TF.CreationDate,2018-06-19T18:29:04+03:00*%
%TF.ProjectId,TinyDiversityRX5808_panelized,54696E79446976657273697479525835,rev?*%
%TF.FileFunction,Profile,NP*%
%FSLAX46Y46*%
G04 Gerber Fmt 4.6, Leading zero omitted, Abs format (unit mm)*
G04 Created by KiCad (PCBNEW 4.0.7) date 06/19/18 18:29:04*
%MOMM*%
%LPD*%
G01*
G04 APERTURE LIST*
%ADD10C,0.100000*%
%ADD11C,0.150000*%
G04 APERTURE END LIST*
D10*
D11*
X214900000Y-63750000D02*
X214900000Y-67750000D01*
X216600000Y-67750000D02*
X221800000Y-67750000D01*
X216600000Y-63750000D02*
X216600000Y-67750000D01*
X221800000Y-63750000D02*
X216600000Y-63750000D01*
X191600000Y-63750000D02*
X191600000Y-67750000D01*
X196800000Y-63750000D02*
X191600000Y-63750000D01*
X189900000Y-63750000D02*
X189900000Y-67750000D01*
X191600000Y-67750000D02*
X196800000Y-67750000D01*
X166600000Y-67750000D02*
X171800000Y-67750000D01*
X171800000Y-63750000D02*
X166600000Y-63750000D01*
X164900000Y-63750000D02*
X164900000Y-67750000D01*
X166600000Y-63750000D02*
X166600000Y-67750000D01*
X141600000Y-67750000D02*
X146800000Y-67750000D01*
X141600000Y-63750000D02*
X146800000Y-63750000D01*
X141600000Y-63750000D02*
X141600000Y-67750000D01*
X139900000Y-63750000D02*
X139900000Y-67750000D01*
X134300000Y-63050000D02*
X137300000Y-63050000D01*
X150800000Y-52550000D02*
X149300000Y-52550000D01*
X149300000Y-52550000D02*
X149300000Y-49550000D01*
X149300000Y-49550000D02*
X150800000Y-49550000D01*
X150800000Y-49550000D02*
X150800000Y-44050000D01*
X139900000Y-63750000D02*
X139900000Y-63050000D01*
X139900000Y-63050000D02*
X137300000Y-63050000D01*
X146800000Y-63750000D02*
G75*
G03X150800000Y-59750000I0J4000000D01*
G01*
X128800000Y-59750000D02*
G75*
G03X132800000Y-63750000I4000000J0D01*
G01*
X128800000Y-59750000D02*
X128800000Y-44050000D01*
X132800000Y-63750000D02*
X132800000Y-63050000D01*
X132800000Y-63050000D02*
X134300000Y-63050000D01*
X131400000Y-43450000D02*
G75*
G03X130800000Y-44050000I0J-600000D01*
G01*
X134300000Y-44050000D02*
G75*
G03X133700000Y-43450000I-600000J0D01*
G01*
X145900000Y-43450000D02*
G75*
G03X145300000Y-44050000I0J-600000D01*
G01*
X148800000Y-44050000D02*
G75*
G03X148200000Y-43450000I-600000J0D01*
G01*
X130800000Y-44050000D02*
X128800000Y-44050000D01*
X148800000Y-44050000D02*
X150800000Y-44050000D01*
X173800000Y-44050000D02*
X175800000Y-44050000D01*
X155800000Y-44050000D02*
X153800000Y-44050000D01*
X173800000Y-44050000D02*
G75*
G03X173200000Y-43450000I-600000J0D01*
G01*
X170900000Y-43450000D02*
G75*
G03X170300000Y-44050000I0J-600000D01*
G01*
X159300000Y-44050000D02*
G75*
G03X158700000Y-43450000I-600000J0D01*
G01*
X156400000Y-43450000D02*
G75*
G03X155800000Y-44050000I0J-600000D01*
G01*
X157800000Y-63050000D02*
X159300000Y-63050000D01*
X157800000Y-63750000D02*
X157800000Y-63050000D01*
X153800000Y-59750000D02*
G75*
G03X157800000Y-63750000I4000000J0D01*
G01*
X171800000Y-63750000D02*
G75*
G03X175800000Y-59750000I0J4000000D01*
G01*
X164900000Y-63050000D02*
X162300000Y-63050000D01*
X164900000Y-63750000D02*
X164900000Y-63050000D01*
X175800000Y-49550000D02*
X175800000Y-44050000D01*
X174300000Y-49550000D02*
X175800000Y-49550000D01*
X174300000Y-52550000D02*
X174300000Y-49550000D01*
X175800000Y-52550000D02*
X174300000Y-52550000D01*
X159300000Y-63050000D02*
X162300000Y-63050000D01*
X184300000Y-63050000D02*
X187300000Y-63050000D01*
X200800000Y-52550000D02*
X199300000Y-52550000D01*
X199300000Y-52550000D02*
X199300000Y-49550000D01*
X199300000Y-49550000D02*
X200800000Y-49550000D01*
X200800000Y-49550000D02*
X200800000Y-44050000D01*
X189900000Y-63750000D02*
X189900000Y-63050000D01*
X189900000Y-63050000D02*
X187300000Y-63050000D01*
X196800000Y-63750000D02*
G75*
G03X200800000Y-59750000I0J4000000D01*
G01*
X178800000Y-59750000D02*
G75*
G03X182800000Y-63750000I4000000J0D01*
G01*
X182800000Y-63750000D02*
X182800000Y-63050000D01*
X182800000Y-63050000D02*
X184300000Y-63050000D01*
X181400000Y-43450000D02*
G75*
G03X180800000Y-44050000I0J-600000D01*
G01*
X184300000Y-44050000D02*
G75*
G03X183700000Y-43450000I-600000J0D01*
G01*
X195900000Y-43450000D02*
G75*
G03X195300000Y-44050000I0J-600000D01*
G01*
X198800000Y-44050000D02*
G75*
G03X198200000Y-43450000I-600000J0D01*
G01*
X180800000Y-44050000D02*
X178800000Y-44050000D01*
X184300000Y-44050000D02*
X195300000Y-44050000D01*
X198800000Y-44050000D02*
X200800000Y-44050000D01*
X223800000Y-44050000D02*
X225800000Y-44050000D01*
X209300000Y-44050000D02*
X220300000Y-44050000D01*
X205800000Y-44050000D02*
X203800000Y-44050000D01*
X223800000Y-44050000D02*
G75*
G03X223200000Y-43450000I-600000J0D01*
G01*
X220900000Y-43450000D02*
G75*
G03X220300000Y-44050000I0J-600000D01*
G01*
X209300000Y-44050000D02*
G75*
G03X208700000Y-43450000I-600000J0D01*
G01*
X206400000Y-43450000D02*
G75*
G03X205800000Y-44050000I0J-600000D01*
G01*
X207800000Y-63050000D02*
X209300000Y-63050000D01*
X207800000Y-63750000D02*
X207800000Y-63050000D01*
X203800000Y-59750000D02*
G75*
G03X207800000Y-63750000I4000000J0D01*
G01*
X225800000Y-59750000D02*
X225800000Y-52550000D01*
X221800000Y-63750000D02*
G75*
G03X225800000Y-59750000I0J4000000D01*
G01*
X214900000Y-63050000D02*
X212300000Y-63050000D01*
X214900000Y-63750000D02*
X214900000Y-63050000D01*
X225800000Y-49550000D02*
X225800000Y-44050000D01*
X224300000Y-49550000D02*
X225800000Y-49550000D01*
X224300000Y-52550000D02*
X224300000Y-49550000D01*
X225800000Y-52550000D02*
X224300000Y-52550000D01*
X209300000Y-63050000D02*
X212300000Y-63050000D01*
X150800000Y-54050000D02*
X153800000Y-54050000D01*
X150800000Y-56050000D02*
X153800000Y-56050000D01*
X150800000Y-52550000D02*
X150800000Y-54050000D01*
X150800000Y-56050000D02*
X150800000Y-59750000D01*
X153800000Y-54050000D02*
X153800000Y-44050000D01*
X153800000Y-59750000D02*
X153800000Y-56050000D01*
X175800000Y-54050000D02*
X178800000Y-54050000D01*
X175800000Y-56050000D02*
X178800000Y-56050000D01*
X175800000Y-52550000D02*
X175800000Y-54050000D01*
X175800000Y-56050000D02*
X175800000Y-59750000D01*
X178800000Y-59750000D02*
X178800000Y-56050000D01*
X178800000Y-54050000D02*
X178800000Y-44050000D01*
X200800000Y-54050000D02*
X203800000Y-54050000D01*
X200800000Y-56050000D02*
X203800000Y-56050000D01*
X203800000Y-44050000D02*
X203800000Y-54050000D01*
X200800000Y-52550000D02*
X200800000Y-54050000D01*
X200800000Y-56050000D02*
X200800000Y-59750000D01*
X203800000Y-56050000D02*
X203800000Y-59750000D01*
X203800000Y-27450000D02*
X203800000Y-23750000D01*
X200800000Y-27450000D02*
X200800000Y-23750000D01*
X200800000Y-30950000D02*
X200800000Y-29450000D01*
X203800000Y-39450000D02*
X203800000Y-29450000D01*
X200800000Y-27450000D02*
X203800000Y-27450000D01*
X200800000Y-29450000D02*
X203800000Y-29450000D01*
X178800000Y-29450000D02*
X178800000Y-39450000D01*
X178800000Y-23750000D02*
X178800000Y-27450000D01*
X175800000Y-27450000D02*
X175800000Y-23750000D01*
X175800000Y-30950000D02*
X175800000Y-29450000D01*
X175800000Y-27450000D02*
X178800000Y-27450000D01*
X175800000Y-29450000D02*
X178800000Y-29450000D01*
X153800000Y-23750000D02*
X153800000Y-27450000D01*
X153800000Y-29450000D02*
X153800000Y-39450000D01*
X150800000Y-27450000D02*
X150800000Y-23750000D01*
X150800000Y-30950000D02*
X150800000Y-29450000D01*
X150800000Y-27450000D02*
X153800000Y-27450000D01*
X150800000Y-29450000D02*
X153800000Y-29450000D01*
X209300000Y-20450000D02*
X212300000Y-20450000D01*
X225800000Y-30950000D02*
X224300000Y-30950000D01*
X224300000Y-30950000D02*
X224300000Y-33950000D01*
X224300000Y-33950000D02*
X225800000Y-33950000D01*
X225800000Y-33950000D02*
X225800000Y-39450000D01*
X214900000Y-19750000D02*
X214900000Y-20450000D01*
X214900000Y-20450000D02*
X212300000Y-20450000D01*
X221800000Y-19750000D02*
G75*
G02X225800000Y-23750000I0J-4000000D01*
G01*
X225800000Y-23750000D02*
X225800000Y-30950000D01*
X221800000Y-19750000D02*
X214900000Y-19750000D01*
X203800000Y-23750000D02*
G75*
G02X207800000Y-19750000I4000000J0D01*
G01*
X207800000Y-19750000D02*
X207800000Y-20450000D01*
X207800000Y-20450000D02*
X209300000Y-20450000D01*
X206400000Y-40050000D02*
G75*
G02X205800000Y-39450000I0J600000D01*
G01*
X209300000Y-39450000D02*
G75*
G02X208700000Y-40050000I-600000J0D01*
G01*
X220900000Y-40050000D02*
G75*
G02X220300000Y-39450000I0J600000D01*
G01*
X223800000Y-39450000D02*
G75*
G02X223200000Y-40050000I-600000J0D01*
G01*
X205800000Y-39450000D02*
X203800000Y-39450000D01*
X209300000Y-39450000D02*
X220300000Y-39450000D01*
X223800000Y-39450000D02*
X225800000Y-39450000D01*
X198800000Y-39450000D02*
X200800000Y-39450000D01*
X184300000Y-39450000D02*
X195300000Y-39450000D01*
X180800000Y-39450000D02*
X178800000Y-39450000D01*
X198800000Y-39450000D02*
G75*
G02X198200000Y-40050000I-600000J0D01*
G01*
X195900000Y-40050000D02*
G75*
G02X195300000Y-39450000I0J600000D01*
G01*
X184300000Y-39450000D02*
G75*
G02X183700000Y-40050000I-600000J0D01*
G01*
X181400000Y-40050000D02*
G75*
G02X180800000Y-39450000I0J600000D01*
G01*
X182800000Y-20450000D02*
X184300000Y-20450000D01*
X182800000Y-19750000D02*
X182800000Y-20450000D01*
X178800000Y-23750000D02*
G75*
G02X182800000Y-19750000I4000000J0D01*
G01*
X196800000Y-19750000D02*
X189900000Y-19750000D01*
X196800000Y-19750000D02*
G75*
G02X200800000Y-23750000I0J-4000000D01*
G01*
X189900000Y-20450000D02*
X187300000Y-20450000D01*
X189900000Y-19750000D02*
X189900000Y-20450000D01*
X200800000Y-33950000D02*
X200800000Y-39450000D01*
X199300000Y-33950000D02*
X200800000Y-33950000D01*
X199300000Y-30950000D02*
X199300000Y-33950000D01*
X200800000Y-30950000D02*
X199300000Y-30950000D01*
X184300000Y-20450000D02*
X187300000Y-20450000D01*
X159300000Y-20450000D02*
X162300000Y-20450000D01*
X175800000Y-30950000D02*
X174300000Y-30950000D01*
X174300000Y-30950000D02*
X174300000Y-33950000D01*
X174300000Y-33950000D02*
X175800000Y-33950000D01*
X175800000Y-33950000D02*
X175800000Y-39450000D01*
X164900000Y-19750000D02*
X164900000Y-20450000D01*
X164900000Y-20450000D02*
X162300000Y-20450000D01*
X171800000Y-19750000D02*
G75*
G02X175800000Y-23750000I0J-4000000D01*
G01*
X153800000Y-23750000D02*
G75*
G02X157800000Y-19750000I4000000J0D01*
G01*
X157800000Y-19750000D02*
X157800000Y-20450000D01*
X157800000Y-20450000D02*
X159300000Y-20450000D01*
X156400000Y-40050000D02*
G75*
G02X155800000Y-39450000I0J600000D01*
G01*
X159300000Y-39450000D02*
G75*
G02X158700000Y-40050000I-600000J0D01*
G01*
X170900000Y-40050000D02*
G75*
G02X170300000Y-39450000I0J600000D01*
G01*
X173800000Y-39450000D02*
G75*
G02X173200000Y-40050000I-600000J0D01*
G01*
X155800000Y-39450000D02*
X153800000Y-39450000D01*
X159300000Y-39450000D02*
X170300000Y-39450000D01*
X173800000Y-39450000D02*
X175800000Y-39450000D01*
X148800000Y-39450000D02*
X150800000Y-39450000D01*
X134300000Y-39450000D02*
X145300000Y-39450000D01*
X130800000Y-39450000D02*
X128800000Y-39450000D01*
X148800000Y-39450000D02*
G75*
G02X148200000Y-40050000I-600000J0D01*
G01*
X145900000Y-40050000D02*
G75*
G02X145300000Y-39450000I0J600000D01*
G01*
X134300000Y-39450000D02*
G75*
G02X133700000Y-40050000I-600000J0D01*
G01*
X131400000Y-40050000D02*
G75*
G02X130800000Y-39450000I0J600000D01*
G01*
X132800000Y-20450000D02*
X134300000Y-20450000D01*
X132800000Y-19750000D02*
X132800000Y-20450000D01*
X128800000Y-23750000D02*
X128800000Y-39450000D01*
X128800000Y-23750000D02*
G75*
G02X132800000Y-19750000I4000000J0D01*
G01*
X146800000Y-19750000D02*
G75*
G02X150800000Y-23750000I0J-4000000D01*
G01*
X139900000Y-20450000D02*
X137300000Y-20450000D01*
X139900000Y-19750000D02*
X139900000Y-20450000D01*
X150800000Y-33950000D02*
X150800000Y-39450000D01*
X149300000Y-33950000D02*
X150800000Y-33950000D01*
X149300000Y-30950000D02*
X149300000Y-33950000D01*
X150800000Y-30950000D02*
X149300000Y-30950000D01*
X134300000Y-20450000D02*
X137300000Y-20450000D01*
X159300000Y-44050000D02*
X170300000Y-44050000D01*
X171800000Y-19750000D02*
X164900000Y-19750000D01*
X134300000Y-44050000D02*
X145300000Y-44050000D01*
X146800000Y-19750000D02*
X139900000Y-19750000D01*
X156400000Y-43450000D02*
X156700000Y-43450000D01*
X156700000Y-43450000D02*
X156700000Y-40050000D01*
X156700000Y-40050000D02*
X156400000Y-40050000D01*
X158700000Y-43450000D02*
X158400000Y-43450000D01*
X158400000Y-43450000D02*
X158400000Y-40050000D01*
X158400000Y-40050000D02*
X158700000Y-40050000D01*
X171200000Y-43450000D02*
X171200000Y-40050000D01*
X172900000Y-40050000D02*
X172900000Y-43450000D01*
X173200000Y-43450000D02*
X172900000Y-43450000D01*
X171200000Y-43450000D02*
X170900000Y-43450000D01*
X170900000Y-40050000D02*
X171200000Y-40050000D01*
X172900000Y-40050000D02*
X173200000Y-40050000D01*
X147900000Y-40050000D02*
X148200000Y-40050000D01*
X145900000Y-40050000D02*
X146200000Y-40050000D01*
X146200000Y-43450000D02*
X145900000Y-43450000D01*
X148200000Y-43450000D02*
X147900000Y-43450000D01*
X147900000Y-40050000D02*
X147900000Y-43450000D01*
X146200000Y-43450000D02*
X146200000Y-40050000D01*
X133400000Y-40050000D02*
X133700000Y-40050000D01*
X133400000Y-43450000D02*
X133400000Y-40050000D01*
X133700000Y-43450000D02*
X133400000Y-43450000D01*
X131700000Y-40050000D02*
X131400000Y-40050000D01*
X131700000Y-43450000D02*
X131700000Y-40050000D01*
X131400000Y-43450000D02*
X131700000Y-43450000D01*
X197900000Y-40050000D02*
X198200000Y-40050000D01*
X195900000Y-40050000D02*
X196200000Y-40050000D01*
X196200000Y-43450000D02*
X195900000Y-43450000D01*
X198200000Y-43450000D02*
X197900000Y-43450000D01*
X197900000Y-40050000D02*
X197900000Y-43450000D01*
X196200000Y-43450000D02*
X196200000Y-40050000D01*
X183400000Y-40050000D02*
X183700000Y-40050000D01*
X183400000Y-43450000D02*
X183400000Y-40050000D01*
X183700000Y-43450000D02*
X183400000Y-43450000D01*
X181700000Y-40050000D02*
X181400000Y-40050000D01*
X181700000Y-43450000D02*
X181700000Y-40050000D01*
X181400000Y-43450000D02*
X181700000Y-43450000D01*
X206400000Y-43450000D02*
X206700000Y-43450000D01*
X206700000Y-43450000D02*
X206700000Y-40050000D01*
X206700000Y-40050000D02*
X206400000Y-40050000D01*
X208700000Y-43450000D02*
X208400000Y-43450000D01*
X208400000Y-43450000D02*
X208400000Y-40050000D01*
X208400000Y-40050000D02*
X208700000Y-40050000D01*
X221200000Y-43450000D02*
X221200000Y-40050000D01*
X222900000Y-40050000D02*
X222900000Y-43450000D01*
X223200000Y-43450000D02*
X222900000Y-43450000D01*
X221200000Y-43450000D02*
X220900000Y-43450000D01*
X220900000Y-40050000D02*
X221200000Y-40050000D01*
X222900000Y-40050000D02*
X223200000Y-40050000D01*
X222900000Y-88050000D02*
X223200000Y-88050000D01*
X220900000Y-88050000D02*
X221200000Y-88050000D01*
X221200000Y-91450000D02*
X220900000Y-91450000D01*
X223200000Y-91450000D02*
X222900000Y-91450000D01*
X222900000Y-88050000D02*
X222900000Y-91450000D01*
X221200000Y-91450000D02*
X221200000Y-88050000D01*
X208400000Y-88050000D02*
X208700000Y-88050000D01*
X208400000Y-91450000D02*
X208400000Y-88050000D01*
X208700000Y-91450000D02*
X208400000Y-91450000D01*
X206700000Y-88050000D02*
X206400000Y-88050000D01*
X206700000Y-91450000D02*
X206700000Y-88050000D01*
X206400000Y-91450000D02*
X206700000Y-91450000D01*
X181400000Y-91450000D02*
X181700000Y-91450000D01*
X181700000Y-91450000D02*
X181700000Y-88050000D01*
X181700000Y-88050000D02*
X181400000Y-88050000D01*
X183700000Y-91450000D02*
X183400000Y-91450000D01*
X183400000Y-91450000D02*
X183400000Y-88050000D01*
X183400000Y-88050000D02*
X183700000Y-88050000D01*
X196200000Y-91450000D02*
X196200000Y-88050000D01*
X197900000Y-88050000D02*
X197900000Y-91450000D01*
X198200000Y-91450000D02*
X197900000Y-91450000D01*
X196200000Y-91450000D02*
X195900000Y-91450000D01*
X195900000Y-88050000D02*
X196200000Y-88050000D01*
X197900000Y-88050000D02*
X198200000Y-88050000D01*
X131400000Y-91450000D02*
X131700000Y-91450000D01*
X131700000Y-91450000D02*
X131700000Y-88050000D01*
X131700000Y-88050000D02*
X131400000Y-88050000D01*
X133700000Y-91450000D02*
X133400000Y-91450000D01*
X133400000Y-91450000D02*
X133400000Y-88050000D01*
X133400000Y-88050000D02*
X133700000Y-88050000D01*
X146200000Y-91450000D02*
X146200000Y-88050000D01*
X147900000Y-88050000D02*
X147900000Y-91450000D01*
X148200000Y-91450000D02*
X147900000Y-91450000D01*
X146200000Y-91450000D02*
X145900000Y-91450000D01*
X145900000Y-88050000D02*
X146200000Y-88050000D01*
X147900000Y-88050000D02*
X148200000Y-88050000D01*
X172900000Y-88050000D02*
X173200000Y-88050000D01*
X170900000Y-88050000D02*
X171200000Y-88050000D01*
X171200000Y-91450000D02*
X170900000Y-91450000D01*
X173200000Y-91450000D02*
X172900000Y-91450000D01*
X172900000Y-88050000D02*
X172900000Y-91450000D01*
X171200000Y-91450000D02*
X171200000Y-88050000D01*
X158400000Y-88050000D02*
X158700000Y-88050000D01*
X158400000Y-91450000D02*
X158400000Y-88050000D01*
X158700000Y-91450000D02*
X158400000Y-91450000D01*
X156700000Y-88050000D02*
X156400000Y-88050000D01*
X156700000Y-91450000D02*
X156700000Y-88050000D01*
X156400000Y-91450000D02*
X156700000Y-91450000D01*
X134300000Y-92050000D02*
X145300000Y-92050000D01*
X159300000Y-92050000D02*
X170300000Y-92050000D01*
X134300000Y-68450000D02*
X137300000Y-68450000D01*
X150800000Y-78950000D02*
X149300000Y-78950000D01*
X149300000Y-78950000D02*
X149300000Y-81950000D01*
X149300000Y-81950000D02*
X150800000Y-81950000D01*
X150800000Y-81950000D02*
X150800000Y-87450000D01*
X139900000Y-67750000D02*
X139900000Y-68450000D01*
X139900000Y-68450000D02*
X137300000Y-68450000D01*
X146800000Y-67750000D02*
G75*
G02X150800000Y-71750000I0J-4000000D01*
G01*
X128800000Y-71750000D02*
G75*
G02X132800000Y-67750000I4000000J0D01*
G01*
X128800000Y-71750000D02*
X128800000Y-87450000D01*
X132800000Y-67750000D02*
X132800000Y-68450000D01*
X132800000Y-68450000D02*
X134300000Y-68450000D01*
X131400000Y-88050000D02*
G75*
G02X130800000Y-87450000I0J600000D01*
G01*
X134300000Y-87450000D02*
G75*
G02X133700000Y-88050000I-600000J0D01*
G01*
X145900000Y-88050000D02*
G75*
G02X145300000Y-87450000I0J600000D01*
G01*
X148800000Y-87450000D02*
G75*
G02X148200000Y-88050000I-600000J0D01*
G01*
X130800000Y-87450000D02*
X128800000Y-87450000D01*
X134300000Y-87450000D02*
X145300000Y-87450000D01*
X148800000Y-87450000D02*
X150800000Y-87450000D01*
X173800000Y-87450000D02*
X175800000Y-87450000D01*
X159300000Y-87450000D02*
X170300000Y-87450000D01*
X155800000Y-87450000D02*
X153800000Y-87450000D01*
X173800000Y-87450000D02*
G75*
G02X173200000Y-88050000I-600000J0D01*
G01*
X170900000Y-88050000D02*
G75*
G02X170300000Y-87450000I0J600000D01*
G01*
X159300000Y-87450000D02*
G75*
G02X158700000Y-88050000I-600000J0D01*
G01*
X156400000Y-88050000D02*
G75*
G02X155800000Y-87450000I0J600000D01*
G01*
X157800000Y-68450000D02*
X159300000Y-68450000D01*
X157800000Y-67750000D02*
X157800000Y-68450000D01*
X153800000Y-71750000D02*
G75*
G02X157800000Y-67750000I4000000J0D01*
G01*
X171800000Y-67750000D02*
G75*
G02X175800000Y-71750000I0J-4000000D01*
G01*
X164900000Y-68450000D02*
X162300000Y-68450000D01*
X164900000Y-67750000D02*
X164900000Y-68450000D01*
X175800000Y-81950000D02*
X175800000Y-87450000D01*
X174300000Y-81950000D02*
X175800000Y-81950000D01*
X174300000Y-78950000D02*
X174300000Y-81950000D01*
X175800000Y-78950000D02*
X174300000Y-78950000D01*
X159300000Y-68450000D02*
X162300000Y-68450000D01*
X184300000Y-68450000D02*
X187300000Y-68450000D01*
X200800000Y-78950000D02*
X199300000Y-78950000D01*
X199300000Y-78950000D02*
X199300000Y-81950000D01*
X199300000Y-81950000D02*
X200800000Y-81950000D01*
X200800000Y-81950000D02*
X200800000Y-87450000D01*
X189900000Y-67750000D02*
X189900000Y-68450000D01*
X189900000Y-68450000D02*
X187300000Y-68450000D01*
X196800000Y-67750000D02*
G75*
G02X200800000Y-71750000I0J-4000000D01*
G01*
X178800000Y-71750000D02*
G75*
G02X182800000Y-67750000I4000000J0D01*
G01*
X182800000Y-67750000D02*
X182800000Y-68450000D01*
X182800000Y-68450000D02*
X184300000Y-68450000D01*
X181400000Y-88050000D02*
G75*
G02X180800000Y-87450000I0J600000D01*
G01*
X184300000Y-87450000D02*
G75*
G02X183700000Y-88050000I-600000J0D01*
G01*
X195900000Y-88050000D02*
G75*
G02X195300000Y-87450000I0J600000D01*
G01*
X198800000Y-87450000D02*
G75*
G02X198200000Y-88050000I-600000J0D01*
G01*
X180800000Y-87450000D02*
X178800000Y-87450000D01*
X184300000Y-87450000D02*
X195300000Y-87450000D01*
X198800000Y-87450000D02*
X200800000Y-87450000D01*
X223800000Y-87450000D02*
X225800000Y-87450000D01*
X209300000Y-87450000D02*
X220300000Y-87450000D01*
X205800000Y-87450000D02*
X203800000Y-87450000D01*
X223800000Y-87450000D02*
G75*
G02X223200000Y-88050000I-600000J0D01*
G01*
X220900000Y-88050000D02*
G75*
G02X220300000Y-87450000I0J600000D01*
G01*
X209300000Y-87450000D02*
G75*
G02X208700000Y-88050000I-600000J0D01*
G01*
X206400000Y-88050000D02*
G75*
G02X205800000Y-87450000I0J600000D01*
G01*
X207800000Y-68450000D02*
X209300000Y-68450000D01*
X207800000Y-67750000D02*
X207800000Y-68450000D01*
X203800000Y-71750000D02*
G75*
G02X207800000Y-67750000I4000000J0D01*
G01*
X225800000Y-71750000D02*
X225800000Y-78950000D01*
X221800000Y-67750000D02*
G75*
G02X225800000Y-71750000I0J-4000000D01*
G01*
X214900000Y-68450000D02*
X212300000Y-68450000D01*
X214900000Y-67750000D02*
X214900000Y-68450000D01*
X225800000Y-81950000D02*
X225800000Y-87450000D01*
X224300000Y-81950000D02*
X225800000Y-81950000D01*
X224300000Y-78950000D02*
X224300000Y-81950000D01*
X225800000Y-78950000D02*
X224300000Y-78950000D01*
X209300000Y-68450000D02*
X212300000Y-68450000D01*
X150800000Y-77450000D02*
X153800000Y-77450000D01*
X150800000Y-75450000D02*
X153800000Y-75450000D01*
X150800000Y-78950000D02*
X150800000Y-77450000D01*
X150800000Y-75450000D02*
X150800000Y-71750000D01*
X153800000Y-77450000D02*
X153800000Y-87450000D01*
X153800000Y-71750000D02*
X153800000Y-75450000D01*
X175800000Y-77450000D02*
X178800000Y-77450000D01*
X175800000Y-75450000D02*
X178800000Y-75450000D01*
X175800000Y-78950000D02*
X175800000Y-77450000D01*
X175800000Y-75450000D02*
X175800000Y-71750000D01*
X178800000Y-71750000D02*
X178800000Y-75450000D01*
X178800000Y-77450000D02*
X178800000Y-87450000D01*
X200800000Y-77450000D02*
X203800000Y-77450000D01*
X200800000Y-75450000D02*
X203800000Y-75450000D01*
X203800000Y-87450000D02*
X203800000Y-77450000D01*
X200800000Y-78950000D02*
X200800000Y-77450000D01*
X200800000Y-75450000D02*
X200800000Y-71750000D01*
X203800000Y-75450000D02*
X203800000Y-71750000D01*
X203800000Y-104050000D02*
X203800000Y-107750000D01*
X200800000Y-104050000D02*
X200800000Y-107750000D01*
X200800000Y-100550000D02*
X200800000Y-102050000D01*
X203800000Y-92050000D02*
X203800000Y-102050000D01*
X200800000Y-104050000D02*
X203800000Y-104050000D01*
X200800000Y-102050000D02*
X203800000Y-102050000D01*
X178800000Y-102050000D02*
X178800000Y-92050000D01*
X178800000Y-107750000D02*
X178800000Y-104050000D01*
X175800000Y-104050000D02*
X175800000Y-107750000D01*
X175800000Y-100550000D02*
X175800000Y-102050000D01*
X175800000Y-104050000D02*
X178800000Y-104050000D01*
X175800000Y-102050000D02*
X178800000Y-102050000D01*
X153800000Y-107750000D02*
X153800000Y-104050000D01*
X153800000Y-102050000D02*
X153800000Y-92050000D01*
X150800000Y-104050000D02*
X150800000Y-107750000D01*
X150800000Y-100550000D02*
X150800000Y-102050000D01*
X150800000Y-104050000D02*
X153800000Y-104050000D01*
X150800000Y-102050000D02*
X153800000Y-102050000D01*
X209300000Y-111050000D02*
X212300000Y-111050000D01*
X225800000Y-100550000D02*
X224300000Y-100550000D01*
X224300000Y-100550000D02*
X224300000Y-97550000D01*
X224300000Y-97550000D02*
X225800000Y-97550000D01*
X225800000Y-97550000D02*
X225800000Y-92050000D01*
X214900000Y-111750000D02*
X214900000Y-111050000D01*
X214900000Y-111050000D02*
X212300000Y-111050000D01*
X221800000Y-111750000D02*
G75*
G03X225800000Y-107750000I0J4000000D01*
G01*
X225800000Y-107750000D02*
X225800000Y-100550000D01*
X221800000Y-111750000D02*
X214900000Y-111750000D01*
X203800000Y-107750000D02*
G75*
G03X207800000Y-111750000I4000000J0D01*
G01*
X207800000Y-111750000D02*
X207800000Y-111050000D01*
X207800000Y-111050000D02*
X209300000Y-111050000D01*
X206400000Y-91450000D02*
G75*
G03X205800000Y-92050000I0J-600000D01*
G01*
X209300000Y-92050000D02*
G75*
G03X208700000Y-91450000I-600000J0D01*
G01*
X220900000Y-91450000D02*
G75*
G03X220300000Y-92050000I0J-600000D01*
G01*
X223800000Y-92050000D02*
G75*
G03X223200000Y-91450000I-600000J0D01*
G01*
X205800000Y-92050000D02*
X203800000Y-92050000D01*
X209300000Y-92050000D02*
X220300000Y-92050000D01*
X223800000Y-92050000D02*
X225800000Y-92050000D01*
X198800000Y-92050000D02*
X200800000Y-92050000D01*
X184300000Y-92050000D02*
X195300000Y-92050000D01*
X180800000Y-92050000D02*
X178800000Y-92050000D01*
X198800000Y-92050000D02*
G75*
G03X198200000Y-91450000I-600000J0D01*
G01*
X195900000Y-91450000D02*
G75*
G03X195300000Y-92050000I0J-600000D01*
G01*
X184300000Y-92050000D02*
G75*
G03X183700000Y-91450000I-600000J0D01*
G01*
X181400000Y-91450000D02*
G75*
G03X180800000Y-92050000I0J-600000D01*
G01*
X182800000Y-111050000D02*
X184300000Y-111050000D01*
X182800000Y-111750000D02*
X182800000Y-111050000D01*
X178800000Y-107750000D02*
G75*
G03X182800000Y-111750000I4000000J0D01*
G01*
X196800000Y-111750000D02*
X189900000Y-111750000D01*
X196800000Y-111750000D02*
G75*
G03X200800000Y-107750000I0J4000000D01*
G01*
X189900000Y-111050000D02*
X187300000Y-111050000D01*
X189900000Y-111750000D02*
X189900000Y-111050000D01*
X200800000Y-97550000D02*
X200800000Y-92050000D01*
X199300000Y-97550000D02*
X200800000Y-97550000D01*
X199300000Y-100550000D02*
X199300000Y-97550000D01*
X200800000Y-100550000D02*
X199300000Y-100550000D01*
X184300000Y-111050000D02*
X187300000Y-111050000D01*
X159300000Y-111050000D02*
X162300000Y-111050000D01*
X175800000Y-100550000D02*
X174300000Y-100550000D01*
X174300000Y-100550000D02*
X174300000Y-97550000D01*
X174300000Y-97550000D02*
X175800000Y-97550000D01*
X175800000Y-97550000D02*
X175800000Y-92050000D01*
X164900000Y-111750000D02*
X164900000Y-111050000D01*
X164900000Y-111050000D02*
X162300000Y-111050000D01*
X171800000Y-111750000D02*
G75*
G03X175800000Y-107750000I0J4000000D01*
G01*
X171800000Y-111750000D02*
X164900000Y-111750000D01*
X153800000Y-107750000D02*
G75*
G03X157800000Y-111750000I4000000J0D01*
G01*
X157800000Y-111750000D02*
X157800000Y-111050000D01*
X157800000Y-111050000D02*
X159300000Y-111050000D01*
X156400000Y-91450000D02*
G75*
G03X155800000Y-92050000I0J-600000D01*
G01*
X159300000Y-92050000D02*
G75*
G03X158700000Y-91450000I-600000J0D01*
G01*
X170900000Y-91450000D02*
G75*
G03X170300000Y-92050000I0J-600000D01*
G01*
X173800000Y-92050000D02*
G75*
G03X173200000Y-91450000I-600000J0D01*
G01*
X155800000Y-92050000D02*
X153800000Y-92050000D01*
X173800000Y-92050000D02*
X175800000Y-92050000D01*
X148800000Y-92050000D02*
X150800000Y-92050000D01*
X130800000Y-92050000D02*
X128800000Y-92050000D01*
X148800000Y-92050000D02*
G75*
G03X148200000Y-91450000I-600000J0D01*
G01*
X145900000Y-91450000D02*
G75*
G03X145300000Y-92050000I0J-600000D01*
G01*
X134300000Y-92050000D02*
G75*
G03X133700000Y-91450000I-600000J0D01*
G01*
X131400000Y-91450000D02*
G75*
G03X130800000Y-92050000I0J-600000D01*
G01*
X132800000Y-111050000D02*
X134300000Y-111050000D01*
X132800000Y-111750000D02*
X132800000Y-111050000D01*
X128800000Y-107750000D02*
X128800000Y-92050000D01*
X128800000Y-107750000D02*
G75*
G03X132800000Y-111750000I4000000J0D01*
G01*
X146800000Y-111750000D02*
X139900000Y-111750000D01*
X146800000Y-111750000D02*
G75*
G03X150800000Y-107750000I0J4000000D01*
G01*
X139900000Y-111050000D02*
X137300000Y-111050000D01*
X139900000Y-111750000D02*
X139900000Y-111050000D01*
X150800000Y-97550000D02*
X150800000Y-92050000D01*
X149300000Y-97550000D02*
X150800000Y-97550000D01*
X149300000Y-100550000D02*
X149300000Y-97550000D01*
X150800000Y-100550000D02*
X149300000Y-100550000D01*
X134300000Y-111050000D02*
X137300000Y-111050000D01*
M02*
